<svg xmlns="http://www.w3.org/2000/svg" version="1.1" xmlns:xlink="http://www.w3.org/1999/xlink" xmlns:svgjs="http://svgjs.com/svgjs" width="1440" height="560" preserveAspectRatio="none" viewBox="0 0 1440 560"><g mask="url(&quot;#SvgjsMask1060&quot;)" fill="none"><rect width="1440" height="560" x="0" y="0" fill="rgba(241, 250, 251, 1)"></rect><path d="M0,388.032C71.433,387.663,119.931,318.687,181.14,281.859C244.677,243.631,327.955,230.7,366.636,167.437C406.415,102.379,400.509,19.425,387.547,-55.721C374.832,-129.434,341.963,-197.346,293.837,-254.611C245.192,-312.493,185.581,-363.762,112.469,-383.034C40.298,-402.058,-33.812,-380.048,-105.683,-359.922C-178.393,-339.561,-256.026,-321.737,-306.612,-265.681C-357.588,-209.193,-369.991,-130.068,-381.044,-54.786C-392.125,20.69,-409.075,103.394,-370.459,169.183C-332.527,233.807,-246.863,245.621,-182.346,283.735C-120.812,320.086,-71.468,388.401,0,388.032" fill="#b4e4ea"></path><path d="M1440 1053.406C1532.2069999999999 1047.629 1612.944 999.9390000000001 1691.874 951.923 1772.645 902.787 1840.714 842.451 1903.284 771.575 1989.079 674.391 2130.139 591.068 2124.788 461.54200000000003 2119.535 334.395 1968.786 269.761 1878.834 179.748 1795.8899999999999 96.74799999999999 1725.4859999999999 1.0149999999999864 1617.859-45.73000000000002 1501.414-96.30499999999995 1360-153.846 1247.884-94.28700000000003 1133.884-33.726999999999975 1143.559 134.17000000000002 1074.232 243.06099999999998 1018.549 330.52099999999996 912.341 380.57 882.365 479.824 850.356 585.81 850.317 708.024 904.679 804.473 957.856 898.8199999999999 1068.789 939.143 1166.992 984.809 1253.833 1025.191 1344.416 1059.395 1440 1053.406" fill="#ffffff"></path></g><defs><mask id="SvgjsMask1060"><rect width="1440" height="560" fill="#ffffff"></rect></mask></defs></svg>