<svg xmlns="http://www.w3.org/2000/svg" width="787" height="559" viewBox="0 0 787 559"><defs><linearGradient id="a" x1="50.001%" x2="50.001%" y1="99.999%" y2="-11.28%"><stop offset="0%" stop-color="#70B"/><stop offset="52.41%" stop-color="#00008B"/><stop offset="100%" stop-color="#00003B"/></linearGradient><linearGradient id="b" x1="59.436%" x2="39.717%" y1="3.093%" y2="101.134%"><stop offset="0%" stop-color="#88CFDA"/><stop offset=".834%" stop-color="#89CFD9"/><stop offset="47.84%" stop-color="#C8D9BB"/><stop offset="82.18%" stop-color="#F0DFA7"/><stop offset="100%" stop-color="#FFE1A0"/></linearGradient><linearGradient id="c" x1="-.011%" x2="100.007%" y1="50.004%" y2="50.004%"><stop offset="0%" stop-color="#A1BAFF"/><stop offset="8.88%" stop-color="#ACC2FF"/><stop offset="49.88%" stop-color="#D9E3FF"/><stop offset="81.6%" stop-color="#F5F7FF"/><stop offset="100%" stop-color="#FFF"/></linearGradient><linearGradient id="d" x1="-.001%" x2="100.001%" y1="50%" y2="50%"><stop offset="0%" stop-color="#70B"/><stop offset="100%" stop-color="#00008B"/><stop offset="100%"/></linearGradient><linearGradient id="e" x1="-.001%" x2="100.002%" y1="50%" y2="50%"><stop offset="0%" stop-color="#88CFDA"/><stop offset=".834%" stop-color="#89CFD9"/><stop offset="47.84%" stop-color="#C8D9BB"/><stop offset="82.18%" stop-color="#F0DFA7"/><stop offset="100%" stop-color="#FFE1A0"/></linearGradient><linearGradient id="f" x1="49.998%" x2="49.998%" y1="101.731%" y2="3.845%"><stop offset="0%" stop-color="#009AFF"/><stop offset="78.61%" stop-color="#AEFFFF"/></linearGradient><linearGradient id="g" x1="-.029%" x2="99.963%" y1="49.957%" y2="49.957%"><stop offset="0%" stop-color="#7A9FFF"/><stop offset="78.61%" stop-color="#FFF"/></linearGradient><linearGradient id="h" x1=".005%" x2="100.021%" y1="49.991%" y2="49.991%"><stop offset="0%" stop-color="#311A70"/><stop offset="100%" stop-color="#639DDB"/></linearGradient><linearGradient id="i" x1=".034%" x2="100.002%" y1="49.977%" y2="49.977%"><stop offset="0%" stop-color="#311A70"/><stop offset="100%" stop-color="#639DDB"/></linearGradient><linearGradient id="j" x1=".003%" x2="99.987%" y1="50.014%" y2="50.014%"><stop offset="0%" stop-color="#7A9FFF"/><stop offset="78.61%" stop-color="#FFF"/></linearGradient><linearGradient id="k" x1="-.008%" x2="99.993%" y1="50.025%" y2="50.025%"><stop offset="0%" stop-color="#3633B8"/><stop offset="78.61%" stop-color="#FFF"/></linearGradient><linearGradient id="l" x1="51.923%" x2="47.655%" y1="-.19%" y2="75.788%"><stop offset="0%" stop-color="#7A9FFF"/><stop offset="78.61%" stop-color="#FFF"/></linearGradient><linearGradient id="m" x1="65.476%" x2="34.137%" y1="29.043%" y2="66.748%"><stop offset="0%" stop-color="#009AFF"/><stop offset="78.61%" stop-color="#AEFFFF"/></linearGradient><linearGradient id="n" x1="58.922%" x2="43.697%" y1="48.931%" y2="55.951%"><stop offset="0%" stop-color="#009AFF"/><stop offset="78.61%" stop-color="#AEFFFF"/></linearGradient><linearGradient id="o" x1="-.006%" x2="99.97%" y1="49.991%" y2="49.991%"><stop offset="0%" stop-color="#7A9FFF"/><stop offset="78.61%" stop-color="#FFF"/></linearGradient><linearGradient id="p" x1="-.015%" x2="100.016%" y1="50.01%" y2="50.01%"><stop offset="0%" stop-color="#311A70"/><stop offset="100%" stop-color="#639DDB"/></linearGradient><linearGradient id="q" x1="-.013%" x2="100.01%" y1="50.011%" y2="50.011%"><stop offset="0%" stop-color="#311A70"/><stop offset="100%" stop-color="#639DDB"/></linearGradient><linearGradient id="r" x1="124.423%" x2="-5.478%" y1="9.551%" y2="94.274%"><stop offset="0%" stop-color="#3633B8"/><stop offset="78.61%" stop-color="#FFF"/></linearGradient><linearGradient id="s" x1=".034%" x2="100.025%" y1="50.003%" y2="50.003%"><stop offset="0%" stop-color="#311A70"/><stop offset="100%" stop-color="#639DDB"/></linearGradient><linearGradient id="t" x1=".012%" x2="100.002%" y1="49.997%" y2="49.997%"><stop offset="0%" stop-color="#7A9FFF"/><stop offset="78.61%" stop-color="#FFF"/></linearGradient><linearGradient id="u" x1="-.004%" x2="99.992%" y1="49.998%" y2="49.998%"><stop offset="0%" stop-color="#88CFDA"/><stop offset=".834%" stop-color="#89CFD9"/><stop offset="47.84%" stop-color="#C8D9BB"/><stop offset="82.18%" stop-color="#F0DFA7"/><stop offset="100%" stop-color="#FFE1A0"/></linearGradient><linearGradient id="v" x1="66.088%" x2="47.349%" y1="46.198%" y2="50.117%"><stop offset="0%" stop-color="#88CFDA"/><stop offset=".834%" stop-color="#89CFD9"/><stop offset="47.84%" stop-color="#C8D9BB"/><stop offset="82.18%" stop-color="#F0DFA7"/><stop offset="100%" stop-color="#FFE1A0"/></linearGradient><linearGradient id="w" x1="50.01%" x2="50.01%" y1="14.337%" y2="97.792%"><stop offset="0%" stop-color="#241A36"/><stop offset="100%" stop-color="#8625DB"/></linearGradient><linearGradient id="x" x1="74.66%" x2="18.46%" y1="2.653%" y2="128.938%"><stop offset="0%" stop-color="#7A9FFF"/><stop offset="78.61%" stop-color="#FFF"/></linearGradient><linearGradient id="y" x1="42.405%" x2="101.259%" y1="16.062%" y2="108.561%"><stop offset="0%" stop-color="#7A9FFF"/><stop offset="78.61%" stop-color="#FFF"/></linearGradient><linearGradient id="z" x1="99.986%" x2="-.004%" y1="50.014%" y2="50.014%"><stop offset="0%" stop-color="#311A70"/><stop offset="100%" stop-color="#81CAE0"/></linearGradient><linearGradient id="A" x1="63.453%" x2="34.256%" y1="23.34%" y2="108.73%"><stop offset="0%" stop-color="#31064C"/><stop offset="100%" stop-color="#639DDB"/></linearGradient><linearGradient id="B" x1="99.983%" x2="-.06%" y1="50.007%" y2="50.007%"><stop offset="0%" stop-color="#270036"/><stop offset="59.36%" stop-color="#4F008B"/><stop offset="100%" stop-color="#4C24B1"/></linearGradient><linearGradient id="C" x1="70.063%" x2="14.451%" y1="90.707%" y2="7.233%"><stop offset="0%" stop-color="#311A70"/><stop offset="100%" stop-color="#81CAE0"/></linearGradient><linearGradient id="D" x1="81.998%" x2="-17.389%" y1="90.318%" y2="8.218%"><stop offset="0%" stop-color="#4A74BF"/><stop offset="78.61%" stop-color="#FFF"/></linearGradient><linearGradient id="E" x1="87.091%" x2="6.747%" y1="80.813%" y2="-1.784%"><stop offset="0%" stop-color="#4A74BF"/><stop offset="78.61%" stop-color="#FFF"/></linearGradient><linearGradient id="F" x1="99.984%" x2="-.027%" y1="49.989%" y2="49.989%"><stop offset="0%" stop-color="#31064C"/><stop offset="100%" stop-color="#639DDB"/></linearGradient><linearGradient id="G" x1="100%" x2="-.015%" y1="50.01%" y2="50.01%"><stop offset="0%" stop-color="#270036"/><stop offset="59.36%" stop-color="#4F008B"/><stop offset="100%" stop-color="#4C24B1"/></linearGradient><linearGradient id="H" x1=".003%" x2="100.007%" y1="50.015%" y2="50.015%"><stop offset="0%" stop-color="#311A70"/><stop offset="100%" stop-color="#639DDB"/></linearGradient><linearGradient id="I" x1="70.285%" x2="20.768%" y1="57.281%" y2="32.142%"><stop offset="0%" stop-color="#3633B8"/><stop offset="78.61%" stop-color="#FFF"/></linearGradient><linearGradient id="J" x1="36.529%" x2="56.378%" y1="9.729%" y2="100.092%"><stop offset="0%" stop-color="#7A9FFF"/><stop offset="78.61%" stop-color="#FFF"/></linearGradient><linearGradient id="K" x1="92.687%" x2="-.033%" y1="64.282%" y2="38.801%"><stop offset="0%" stop-color="#311A70"/><stop offset="100%" stop-color="#639DDB"/></linearGradient><linearGradient id="L" x1="90.232%" x2="-1.125%" y1="56.377%" y2="38.45%"><stop offset="0%" stop-color="#7A9FFF"/><stop offset="78.61%" stop-color="#FFF"/></linearGradient><linearGradient id="M" x1="96.511%" x2="6.814%" y1="54.49%" y2="45.612%"><stop offset="0%" stop-color="#7A9FFF"/><stop offset="78.61%" stop-color="#FFF"/></linearGradient><linearGradient id="N" x1="-2.414%" x2="85.618%" y1="74.83%" y2="32.58%"><stop offset="0%" stop-color="#3633B8"/><stop offset="78.61%" stop-color="#FFF"/></linearGradient><linearGradient id="O" x1="97.323%" x2="2.793%" y1="58.38%" y2="42.885%"><stop offset="0%" stop-color="#7A9FFF"/><stop offset="78.61%" stop-color="#FFF"/></linearGradient><linearGradient id="P" x1="91.993%" x2="7.949%" y1="55.247%" y2="46.302%"><stop offset="0%" stop-color="#7A9FFF"/><stop offset="78.61%" stop-color="#FFF"/></linearGradient><linearGradient id="Q" x1="100.081%" x2=".64%" y1="59.824%" y2="40.297%"><stop offset="0%" stop-color="#7A9FFF"/><stop offset="78.61%" stop-color="#FFF"/></linearGradient><linearGradient id="R" x1="100.055%" x2="-.603%" y1="60.702%" y2="38.836%"><stop offset="0%" stop-color="#7A9FFF"/><stop offset="78.61%" stop-color="#FFF"/></linearGradient><linearGradient id="S" x1="89.591%" x2="6.036%" y1="54.137%" y2="30.075%"><stop offset="0%" stop-color="#7A9FFF"/><stop offset="78.61%" stop-color="#FFF"/></linearGradient><linearGradient id="T" x1="75.855%" x2="30.392%" y1="58.283%" y2="37.447%"><stop offset="0%" stop-color="#7A9FFF"/><stop offset="78.61%" stop-color="#FFF"/></linearGradient><linearGradient id="U" x1="5.28%" x2="67.128%" y1="5.444%" y2="90.762%"><stop offset="0%" stop-color="#311A70"/><stop offset="100%" stop-color="#639DDB"/></linearGradient><linearGradient id="V" x1="88.057%" x2="21.122%" y1="64.026%" y2="43.386%"><stop offset="0%" stop-color="#7A9FFF"/><stop offset="78.61%" stop-color="#FFF"/></linearGradient><linearGradient id="W" x1="94.871%" x2="-4.008%" y1="68.086%" y2="41.017%"><stop offset="0%" stop-color="#7A9FFF"/><stop offset="78.61%" stop-color="#FFF"/></linearGradient><linearGradient id="X" x1="53.141%" x2="46.796%" y1="103.301%" y2="-.073%"><stop offset="0%" stop-color="#009AFF"/><stop offset="78.61%" stop-color="#AEFFFF"/></linearGradient><linearGradient id="Y" x1="61.165%" x2="39.145%" y1="59.439%" y2="49.349%"><stop offset="0%" stop-color="#1DACFF"/><stop offset="16.11%" stop-color="#378FD9"/><stop offset="34.36%" stop-color="#5073B4"/><stop offset="49.15%" stop-color="#5F629D"/><stop offset="58.53%" stop-color="#655C95"/><stop offset="63.67%" stop-color="#6F5F91"/><stop offset="72.3%" stop-color="#896886"/><stop offset="83.36%" stop-color="#B37774"/><stop offset="96.28%" stop-color="#ED8C5C"/><stop offset="100%" stop-color="#FF9254"/></linearGradient><linearGradient id="Z" x1="61.15%" x2="39.147%" y1="59.42%" y2="49.332%"><stop offset="0%" stop-color="#7633FF"/><stop offset="15.85%" stop-color="#7137FF"/><stop offset="35.35%" stop-color="#6243FF"/><stop offset="56.76%" stop-color="#4957FF"/><stop offset="79.37%" stop-color="#2672FF"/><stop offset="100%" stop-color="#0090FF"/></linearGradient><linearGradient id="aa" x1="61.549%" x2="42.525%" y1="45.159%" y2="60.43%"><stop offset="0%" stop-color="#311A70"/><stop offset="100%" stop-color="#639DDB"/></linearGradient><linearGradient id="ab" x1="54.68%" x2="41.903%" y1="48.019%" y2="52.721%"><stop offset="0%" stop-color="#7A9FFF"/><stop offset="78.61%" stop-color="#FFF"/></linearGradient><linearGradient id="ac" x1="77.022%" x2="23.194%" y1="9.821%" y2="111.498%"><stop offset="0%" stop-color="#7A9FFF"/><stop offset="78.61%" stop-color="#FFF"/></linearGradient><linearGradient id="ad" x1="50.011%" x2="50.011%" y1="14.344%" y2="97.787%"><stop offset="0%" stop-color="#241A36"/><stop offset="100%" stop-color="#8625DB"/></linearGradient><linearGradient id="ae" x1="25.319%" x2="81.519%" y1="2.666%" y2="128.951%"><stop offset="0%" stop-color="#7A9FFF"/><stop offset="78.61%" stop-color="#FFF"/></linearGradient><linearGradient id="af" x1="55.88%" x2="1.962%" y1="21.138%" y2="110.463%"><stop offset="0%" stop-color="#7A9FFF"/><stop offset="78.61%" stop-color="#FFF"/></linearGradient><linearGradient id="ag" x1=".012%" x2="100.001%" y1="50.014%" y2="50.014%"><stop offset="0%" stop-color="#311A70"/><stop offset="100%" stop-color="#81CAE0"/></linearGradient><linearGradient id="ah" x1="73.017%" x2="41.083%" y1="67.37%" y2="45.634%"><stop offset="0%" stop-color="#31064C"/><stop offset="100%" stop-color="#639DDB"/></linearGradient><linearGradient id="ai" x1=".014%" x2="100.058%" y1="50.007%" y2="50.007%"><stop offset="0%" stop-color="#270036"/><stop offset="59.36%" stop-color="#4F008B"/><stop offset="100%" stop-color="#4C24B1"/></linearGradient><linearGradient id="aj" x1="13.35%" x2="76.853%" y1="83.48%" y2="41.242%"><stop offset="0%" stop-color="#311A70"/><stop offset="100%" stop-color="#81CAE0"/></linearGradient><linearGradient id="ak" x1="17.999%" x2="117.386%" y1="90.318%" y2="8.219%"><stop offset="0%" stop-color="#4A74BF"/><stop offset="78.61%" stop-color="#FFF"/></linearGradient><linearGradient id="al" x1="12.906%" x2="93.251%" y1="80.814%" y2="-1.783%"><stop offset="0%" stop-color="#4A74BF"/><stop offset="78.61%" stop-color="#FFF"/></linearGradient><linearGradient id="am" x1="55.746%" x2="33.14%" y1="44.01%" y2="52.528%"><stop offset="0%" stop-color="#31064C"/><stop offset="100%" stop-color="#639DDB"/></linearGradient><linearGradient id="an" x1="-.001%" x2="100.014%" y1="50.011%" y2="50.011%"><stop offset="0%" stop-color="#270036"/><stop offset="59.36%" stop-color="#4F008B"/><stop offset="100%" stop-color="#4C24B1"/></linearGradient><linearGradient id="ao" x1=".004%" x2="100.036%" y1="50.035%" y2="50.035%"><stop offset="0%" stop-color="#311A70"/><stop offset="100%" stop-color="#639DDB"/></linearGradient><linearGradient id="ap" x1="-.002%" x2="100.006%" y1="49.991%" y2="49.991%"><stop offset="0%" stop-color="#7A9FFF"/><stop offset="78.61%" stop-color="#FFF"/></linearGradient><linearGradient id="aq" x1=".015%" x2="100.015%" y1="49.998%" y2="49.998%"><stop offset="0%" stop-color="#7A9FFF"/><stop offset="78.61%" stop-color="#FFF"/></linearGradient><linearGradient id="ar" x1="74.768%" x2="-11.454%" y1="71.38%" y2="2.537%"><stop offset="0%" stop-color="#3633B8"/><stop offset="78.61%" stop-color="#FFF"/></linearGradient><linearGradient id="as" x1=".018%" x2="100.022%" y1="50.036%" y2="50.036%"><stop offset="0%" stop-color="#7A9FFF"/><stop offset="78.61%" stop-color="#FFF"/></linearGradient><linearGradient id="at" x1="-.02%" x2="99.951%" y1="49.832%" y2="49.832%"><stop offset="0%" stop-color="#7A9FFF"/><stop offset="78.61%" stop-color="#FFF"/></linearGradient><linearGradient id="au" x1=".008%" x2="99.959%" y1="49.987%" y2="49.987%"><stop offset="0%" stop-color="#7A9FFF"/><stop offset="78.61%" stop-color="#FFF"/></linearGradient><linearGradient id="av" x1=".052%" x2="100.04%" y1="50.032%" y2="50.032%"><stop offset="0%" stop-color="#7A9FFF"/><stop offset="78.61%" stop-color="#FFF"/></linearGradient><linearGradient id="aw" x1="-.02%" x2="99.991%" y1="49.956%" y2="49.956%"><stop offset="0%" stop-color="#7A9FFF"/><stop offset="78.61%" stop-color="#FFF"/></linearGradient><linearGradient id="ax" x1=".044%" x2="100.007%" y1="50.016%" y2="50.016%"><stop offset="0%" stop-color="#7A9FFF"/><stop offset="78.61%" stop-color="#FFF"/></linearGradient><linearGradient id="ay" x1="129.262%" x2="23.635%" y1="17.757%" y2="84.674%"><stop offset="0%" stop-color="#311A70"/><stop offset="100%" stop-color="#639DDB"/></linearGradient><linearGradient id="az" x1=".038%" x2="99.999%" y1="50.032%" y2="50.032%"><stop offset="0%" stop-color="#7A9FFF"/><stop offset="78.61%" stop-color="#FFF"/></linearGradient><linearGradient id="aA" x1=".031%" x2="99.971%" y1="49.964%" y2="49.964%"><stop offset="0%" stop-color="#7A9FFF"/><stop offset="78.61%" stop-color="#FFF"/></linearGradient><linearGradient id="aB" x1="38.298%" x2="61.487%" y1="102.94%" y2="-.102%"><stop offset="0%" stop-color="#009AFF"/><stop offset="78.61%" stop-color="#AEFFFF"/></linearGradient><linearGradient id="aC" x1="43.11%" x2="57.489%" y1="51.395%" y2="49.644%"><stop offset="0%" stop-color="#1DACFF"/><stop offset="16.11%" stop-color="#378FD9"/><stop offset="34.36%" stop-color="#5073B4"/><stop offset="49.15%" stop-color="#5F629D"/><stop offset="58.53%" stop-color="#655C95"/><stop offset="63.67%" stop-color="#6F5F91"/><stop offset="72.3%" stop-color="#896886"/><stop offset="83.36%" stop-color="#B37774"/><stop offset="96.28%" stop-color="#ED8C5C"/><stop offset="100%" stop-color="#FF9254"/></linearGradient><linearGradient id="aD" x1="-.034%" x2="100.004%" y1="50.004%" y2="50.004%"><stop offset="0%" stop-color="#7633FF"/><stop offset="15.85%" stop-color="#7137FF"/><stop offset="35.35%" stop-color="#6243FF"/><stop offset="56.76%" stop-color="#4957FF"/><stop offset="79.37%" stop-color="#2672FF"/><stop offset="100%" stop-color="#0090FF"/></linearGradient><linearGradient id="aE" x1="44.711%" x2="53.405%" y1="43.465%" y2="61.497%"><stop offset="0%" stop-color="#311A70"/><stop offset="100%" stop-color="#639DDB"/></linearGradient><linearGradient id="aF" x1="47.842%" x2="53.68%" y1="47.36%" y2="53.339%"><stop offset="0%" stop-color="#7A9FFF"/><stop offset="78.61%" stop-color="#FFF"/></linearGradient><linearGradient id="aG" x1="0%" x2="100.009%" y1="50%" y2="50%"><stop offset="0%" stop-color="#A1BAFF"/><stop offset="8.88%" stop-color="#ACC2FF"/><stop offset="49.88%" stop-color="#D9E3FF"/><stop offset="81.6%" stop-color="#F5F7FF"/><stop offset="100%" stop-color="#FFF"/></linearGradient><linearGradient id="aH" x1="-1.243%" x2="97.849%" y1="38.962%" y2="58.122%"><stop offset="0%" stop-color="#70B"/><stop offset="100%" stop-color="#00008B"/><stop offset="100%"/></linearGradient><linearGradient id="aI" x1="3.255%" x2="103.123%" y1="35.317%" y2="58.21%"><stop offset="0%" stop-color="#70B"/><stop offset="100%" stop-color="#00008B"/><stop offset="100%"/></linearGradient><linearGradient id="aK" x1="97.863%" x2="-40.825%" y1="18.785%" y2="87.955%"><stop offset="0%" stop-color="#70B"/><stop offset="95.72%"/></linearGradient><linearGradient id="aL" x1="28.033%" x2="63.738%" y1="37.748%" y2="53.798%"><stop offset="0%" stop-color="#70B"/><stop offset="100%" stop-color="#00008B"/><stop offset="100%"/></linearGradient><linearGradient id="aN" x1="33.344%" x2="140.125%" y1="38.617%" y2="87.695%"><stop offset="0%" stop-color="#70B"/><stop offset="95.72%"/></linearGradient><linearGradient id="aO" x1="36.038%" x2="59.224%" y1="40.888%" y2="59.128%"><stop offset="0%" stop-color="#70B"/><stop offset="100%" stop-color="#00008B"/><stop offset="100%"/></linearGradient><linearGradient id="aP" x1="22.163%" x2="93.391%" y1="60.552%" y2="40.613%"><stop offset="0%" stop-color="#70B"/><stop offset="100%" stop-color="#00008B"/><stop offset="100%"/></linearGradient><linearGradient id="aQ" x1="8.663%" x2="53.352%" y1="6.036%" y2="61.708%"><stop offset="0%" stop-color="#70B"/><stop offset="100%" stop-color="#00008B"/><stop offset="100%"/></linearGradient><linearGradient id="aR" x1="96.363%" x2="-5.405%" y1="48.716%" y2="52.717%"><stop offset="0%" stop-color="#70B"/><stop offset="100%" stop-color="#00008B"/><stop offset="100%"/></linearGradient><linearGradient id="aS" x1="59.607%" x2="47.265%" y1="8.538%" y2="70.816%"><stop offset="0%" stop-color="#A1BAFF"/><stop offset="14.15%" stop-color="#A6BEFF"/><stop offset="32.12%" stop-color="#B6CAFF"/><stop offset="52.14%" stop-color="#D0DDFF"/><stop offset="73.52%" stop-color="#F4F7FF"/><stop offset="79.19%" stop-color="#FFF"/></linearGradient><linearGradient id="aT" x1="5.287%" x2="96.109%" y1="84.886%" y2="20.139%"><stop offset="0%" stop-color="#70B"/><stop offset="100%" stop-color="#00008B"/><stop offset="100%"/></linearGradient><linearGradient id="aU" x1="-5.327%" x2="92.489%" y1="79.056%" y2="2.317%"><stop offset="0%" stop-color="#70B"/><stop offset="100%" stop-color="#00008B"/><stop offset="100%"/></linearGradient><linearGradient id="aW" x1="55.416%" x2="44.296%" y1="-10.041%" y2="139.592%"><stop offset="0%" stop-color="#70B"/><stop offset="95.72%"/></linearGradient><linearGradient id="aX" x1="38.627%" x2="59.465%" y1="72.696%" y2="41.959%"><stop offset="0%" stop-color="#70B"/><stop offset="100%" stop-color="#00008B"/><stop offset="100%"/></linearGradient><linearGradient id="aZ" x1="23.155%" x2="146.949%" y1="68.199%" y2="1.548%"><stop offset="0%" stop-color="#70B"/><stop offset="95.72%"/></linearGradient><linearGradient id="ba" x1="29.826%" x2="76.6%" y1="62.833%" y2="43.208%"><stop offset="0%" stop-color="#70B"/><stop offset="100%" stop-color="#00008B"/><stop offset="100%"/></linearGradient><linearGradient id="bb" x1="34.461%" x2="61.233%" y1="83.662%" y2="-1.776%"><stop offset="0%" stop-color="#70B"/><stop offset="100%" stop-color="#00008B"/><stop offset="100%"/></linearGradient><linearGradient id="bc" x1="-13.757%" x2="67.429%" y1="49.84%" y2="50.35%"><stop offset="0%" stop-color="#70B"/><stop offset="100%" stop-color="#00008B"/><stop offset="100%"/></linearGradient><linearGradient id="bd" x1="66.583%" x2="10.306%" y1="-6.19%" y2="102.693%"><stop offset="0%" stop-color="#70B"/><stop offset="100%" stop-color="#00008B"/><stop offset="100%"/></linearGradient><linearGradient id="be" x1="4.91%" x2="65.138%" y1="18.704%" y2="57.931%"><stop offset="0%" stop-color="#A1BAFF"/><stop offset="14.15%" stop-color="#A6BEFF"/><stop offset="32.12%" stop-color="#B6CAFF"/><stop offset="52.14%" stop-color="#D0DDFF"/><stop offset="73.52%" stop-color="#F4F7FF"/><stop offset="79.19%" stop-color="#FFF"/></linearGradient><linearGradient id="bf" x1="94.616%" x2="3.765%" y1="84.686%" y2="19.866%"><stop offset="0%" stop-color="#70B"/><stop offset="100%" stop-color="#00008B"/><stop offset="100%"/></linearGradient><linearGradient id="bg" x1="105.295%" x2="7.44%" y1="78.876%" y2="2.094%"><stop offset="0%" stop-color="#70B"/><stop offset="100%" stop-color="#00008B"/><stop offset="100%"/></linearGradient><linearGradient id="bi" x1="44.543%" x2="55.669%" y1="-10.254%" y2="139.435%"><stop offset="0%" stop-color="#70B"/><stop offset="95.72%"/></linearGradient><linearGradient id="bj" x1="61.256%" x2="40.381%" y1="72.003%" y2="41.233%"><stop offset="0%" stop-color="#70B"/><stop offset="100%" stop-color="#00008B"/><stop offset="100%"/></linearGradient><linearGradient id="bl" x1="76.742%" x2="-47.014%" y1="68.04%" y2="1.438%"><stop offset="0%" stop-color="#70B"/><stop offset="95.72%"/></linearGradient><linearGradient id="bm" x1="70.001%" x2="23.243%" y1="62.4%" y2="42.832%"><stop offset="0%" stop-color="#70B"/><stop offset="100%" stop-color="#00008B"/><stop offset="100%"/></linearGradient><linearGradient id="bn" x1="65.509%" x2="38.735%" y1="83.555%" y2="-1.88%"><stop offset="0%" stop-color="#70B"/><stop offset="100%" stop-color="#00008B"/><stop offset="100%"/></linearGradient><linearGradient id="bo" x1="113.64%" x2="32.416%" y1="49.663%" y2="50.173%"><stop offset="0%" stop-color="#70B"/><stop offset="100%" stop-color="#00008B"/><stop offset="100%"/></linearGradient><linearGradient id="bp" x1="33.409%" x2="89.683%" y1="-6.262%" y2="102.62%"><stop offset="0%" stop-color="#70B"/><stop offset="100%" stop-color="#00008B"/><stop offset="100%"/></linearGradient><linearGradient id="bq" x1="94.982%" x2="34.735%" y1="18.363%" y2="57.619%"><stop offset="0%" stop-color="#A1BAFF"/><stop offset="14.15%" stop-color="#A6BEFF"/><stop offset="32.12%" stop-color="#B6CAFF"/><stop offset="52.14%" stop-color="#D0DDFF"/><stop offset="73.52%" stop-color="#F4F7FF"/><stop offset="79.19%" stop-color="#FFF"/></linearGradient><linearGradient id="br" x1="94.615%" x2="3.737%" y1="84.893%" y2="20.03%"><stop offset="0%" stop-color="#70B"/><stop offset="100%" stop-color="#00008B"/><stop offset="100%"/></linearGradient><linearGradient id="bs" x1="105.327%" x2="7.471%" y1="79.055%" y2="2.286%"><stop offset="0%" stop-color="#70B"/><stop offset="100%" stop-color="#00008B"/><stop offset="100%"/></linearGradient><linearGradient id="bu" x1="44.539%" x2="55.655%" y1="-10.139%" y2="139.514%"><stop offset="0%" stop-color="#70B"/><stop offset="95.72%"/></linearGradient><linearGradient id="bv" x1="61.329%" x2="40.436%" y1="72.472%" y2="41.702%"><stop offset="0%" stop-color="#70B"/><stop offset="100%" stop-color="#00008B"/><stop offset="100%"/></linearGradient><linearGradient id="bx" x1="76.753%" x2="-47.015%" y1="68.137%" y2="1.582%"><stop offset="0%" stop-color="#70B"/><stop offset="95.72%"/></linearGradient><linearGradient id="by" x1="70.052%" x2="23.261%" y1="62.671%" y2="43.035%"><stop offset="0%" stop-color="#70B"/><stop offset="100%" stop-color="#00008B"/><stop offset="100%"/></linearGradient><linearGradient id="bz" x1="65.526%" x2="38.758%" y1="83.638%" y2="-1.792%"><stop offset="0%" stop-color="#70B"/><stop offset="100%" stop-color="#00008B"/><stop offset="100%"/></linearGradient><linearGradient id="bA" x1="113.743%" x2="32.504%" y1="49.801%" y2="50.312%"><stop offset="0%" stop-color="#70B"/><stop offset="100%" stop-color="#00008B"/><stop offset="100%"/></linearGradient><linearGradient id="bB" x1="33.419%" x2="89.723%" y1="-6.163%" y2="102.728%"><stop offset="0%" stop-color="#70B"/><stop offset="100%" stop-color="#00008B"/><stop offset="100%"/></linearGradient><linearGradient id="bC" x1="95.033%" x2="34.785%" y1="18.629%" y2="57.919%"><stop offset="0%" stop-color="#A1BAFF"/><stop offset="14.15%" stop-color="#A6BEFF"/><stop offset="32.12%" stop-color="#B6CAFF"/><stop offset="52.14%" stop-color="#D0DDFF"/><stop offset="73.52%" stop-color="#F4F7FF"/><stop offset="79.19%" stop-color="#FFF"/></linearGradient><radialGradient id="aJ" cx="50.364%" cy="49.189%" r="75.051%" fx="50.364%" fy="49.189%"><stop offset="0%" stop-color="#FFF"/><stop offset="15.6%" stop-color="#FEFDFE"/><stop offset="24.53%" stop-color="#F9F4F9"/><stop offset="31.77%" stop-color="#F0E6F1"/><stop offset="38.11%" stop-color="#E4D3E6"/><stop offset="43.86%" stop-color="#D5B9D7"/><stop offset="49.19%" stop-color="#C199C5"/><stop offset="54.19%" stop-color="#AB73AF"/><stop offset="58.93%" stop-color="#904896"/><stop offset="63.3%" stop-color="#73187B"/><stop offset="65.24%" stop-color="#65006D"/></radialGradient><radialGradient id="aM" cx="50.502%" cy="49.022%" r="68.903%" fx="50.502%" fy="49.022%" gradientTransform="scale(1 .999) rotate(18.042 .503 .49)"><stop offset="0%" stop-color="#FFF"/><stop offset="15.6%" stop-color="#FEFDFE"/><stop offset="24.53%" stop-color="#F9F4F9"/><stop offset="31.77%" stop-color="#F0E6F1"/><stop offset="38.11%" stop-color="#E4D3E6"/><stop offset="43.86%" stop-color="#D5B9D7"/><stop offset="49.19%" stop-color="#C199C5"/><stop offset="54.19%" stop-color="#AB73AF"/><stop offset="58.93%" stop-color="#904896"/><stop offset="63.3%" stop-color="#73187B"/><stop offset="65.24%" stop-color="#65006D"/></radialGradient><radialGradient id="aV" cx="50.138%" cy="51.01%" r="75.029%" fx="50.138%" fy="51.01%"><stop offset="0%" stop-color="#FFF"/><stop offset="15.6%" stop-color="#FEFDFE"/><stop offset="24.53%" stop-color="#F9F4F9"/><stop offset="31.77%" stop-color="#F0E6F1"/><stop offset="38.11%" stop-color="#E4D3E6"/><stop offset="43.86%" stop-color="#D5B9D7"/><stop offset="49.19%" stop-color="#C199C5"/><stop offset="54.19%" stop-color="#AB73AF"/><stop offset="58.93%" stop-color="#904896"/><stop offset="63.3%" stop-color="#73187B"/><stop offset="65.24%" stop-color="#65006D"/></radialGradient><radialGradient id="aY" cx="50.235%" cy="51.276%" r="68.934%" fx="50.235%" fy="51.276%"><stop offset="0%" stop-color="#FFF"/><stop offset="15.6%" stop-color="#FEFDFE"/><stop offset="24.53%" stop-color="#F9F4F9"/><stop offset="31.77%" stop-color="#F0E6F1"/><stop offset="38.11%" stop-color="#E4D3E6"/><stop offset="43.86%" stop-color="#D5B9D7"/><stop offset="49.19%" stop-color="#C199C5"/><stop offset="54.19%" stop-color="#AB73AF"/><stop offset="58.93%" stop-color="#904896"/><stop offset="63.3%" stop-color="#73187B"/><stop offset="65.24%" stop-color="#65006D"/></radialGradient><radialGradient id="bh" cx="49.651%" cy="50.44%" r="75.114%" fx="49.651%" fy="50.44%" gradientTransform="matrix(-.76478 -.64406 .64429 -.76452 .551 1.21)"><stop offset="0%" stop-color="#FFF"/><stop offset="15.6%" stop-color="#FEFDFE"/><stop offset="24.53%" stop-color="#F9F4F9"/><stop offset="31.77%" stop-color="#F0E6F1"/><stop offset="38.11%" stop-color="#E4D3E6"/><stop offset="43.86%" stop-color="#D5B9D7"/><stop offset="49.19%" stop-color="#C199C5"/><stop offset="54.19%" stop-color="#AB73AF"/><stop offset="58.93%" stop-color="#904896"/><stop offset="63.3%" stop-color="#73187B"/><stop offset="65.24%" stop-color="#65006D"/></radialGradient><radialGradient id="bk" cx="49.51%" cy="50.567%" r="68.933%" fx="49.51%" fy="50.567%" gradientTransform="scale(-.99875 -1) rotate(40.112 1.385 -1.357)"><stop offset="0%" stop-color="#FFF"/><stop offset="15.6%" stop-color="#FEFDFE"/><stop offset="24.53%" stop-color="#F9F4F9"/><stop offset="31.77%" stop-color="#F0E6F1"/><stop offset="38.11%" stop-color="#E4D3E6"/><stop offset="43.86%" stop-color="#D5B9D7"/><stop offset="49.19%" stop-color="#C199C5"/><stop offset="54.19%" stop-color="#AB73AF"/><stop offset="58.93%" stop-color="#904896"/><stop offset="63.3%" stop-color="#73187B"/><stop offset="65.24%" stop-color="#65006D"/></radialGradient><radialGradient id="bt" cx="49.781%" cy="50.778%" r="75.097%" fx="49.781%" fy="50.778%" gradientTransform="matrix(-.76412 -.64429 .64373 -.76478 .551 1.217)"><stop offset="0%" stop-color="#FFF"/><stop offset="15.6%" stop-color="#FEFDFE"/><stop offset="24.53%" stop-color="#F9F4F9"/><stop offset="31.77%" stop-color="#F0E6F1"/><stop offset="38.11%" stop-color="#E4D3E6"/><stop offset="43.86%" stop-color="#D5B9D7"/><stop offset="49.19%" stop-color="#C199C5"/><stop offset="54.19%" stop-color="#AB73AF"/><stop offset="58.93%" stop-color="#904896"/><stop offset="63.3%" stop-color="#73187B"/><stop offset="65.24%" stop-color="#65006D"/></radialGradient><radialGradient id="bw" cx="49.602%" cy="51.081%" r="68.933%" fx="49.602%" fy="51.081%" gradientTransform="scale(-.99899 -1) rotate(40.112 1.399 -1.36)"><stop offset="0%" stop-color="#FFF"/><stop offset="15.6%" stop-color="#FEFDFE"/><stop offset="24.53%" stop-color="#F9F4F9"/><stop offset="31.77%" stop-color="#F0E6F1"/><stop offset="38.11%" stop-color="#E4D3E6"/><stop offset="43.86%" stop-color="#D5B9D7"/><stop offset="49.19%" stop-color="#C199C5"/><stop offset="54.19%" stop-color="#AB73AF"/><stop offset="58.93%" stop-color="#904896"/><stop offset="63.3%" stop-color="#73187B"/><stop offset="65.24%" stop-color="#65006D"/></radialGradient></defs><g fill="none" fill-rule="nonzero"><path fill="url(#a)" d="M752.09,553.32 C752.09,553.32 834.51,446.91 743.24,355.68 C684.15,296.62 666.05,284.67 658.83,253.76 C643.31,187.3 586.63,0.5 421.73,0.5 C143,0.5 119.96,287.02 119.96,287.02 C119.96,287.02 40.21,302.37 10.51,408.03 C-17.63,508.15 22.3,558.25 22.3,558.25 L752.09,553.32 Z"/><g fill="#FFF" transform="translate(181 53)"><g transform="translate(0 22)"><circle cx="131.02" cy="2.89" r="2.15"/><path d="M209.04 67.37C209.04 67.96 208.56 68.43 207.98 68.43 207.39 68.43 206.92 67.95 206.92 67.37 206.92 66.78 207.4 66.31 207.98 66.31 208.56 66.31 209.04 66.79 209.04 67.37zM82.67 85.53C82.67 87.13 81.37 88.43 79.77 88.43 78.17 88.43 76.87 87.13 76.87 85.53 76.87 83.93 78.17 82.63 79.77 82.63 81.37 82.63 82.67 83.93 82.67 85.53zM4.7 72.03C4.7 73.26 3.7 74.26 2.47 74.26 1.24 74.26.24 73.26.24 72.03.24 70.8 1.24 69.8 2.47 69.8 3.7 69.8 4.7 70.8 4.7 72.03zM199.63 8.58C199.63 9.7 198.72 10.61 197.6 10.61 196.48 10.61 195.57 9.7 195.57 8.58 195.57 7.46 196.48 6.55 197.6 6.55 198.72 6.55 199.63 7.46 199.63 8.58z"/></g><g transform="translate(152)"><circle cx="130.81" cy="2.76" r="2.15"/><path d="M208.83 67.25C208.83 67.84 208.35 68.31 207.77 68.31 207.18 68.31 206.71 67.83 206.71 67.25 206.71 66.66 207.19 66.19 207.77 66.19 208.36 66.18 208.83 66.66 208.83 67.25zM82.47 85.41C82.47 87.01 81.17 88.31 79.57 88.31 77.97 88.31 76.67 87.01 76.67 85.41 76.67 83.81 77.97 82.5099427 79.57 82.5099427 81.17 82.5 82.47 83.8 82.47 85.41zM4.5 71.9C4.5 73.13 3.5 74.13 2.27 74.13 1.04 74.13.04 73.13.04 71.9.04 70.67 1.04 69.67 2.27 69.67 3.5 69.67 4.5 70.67 4.5 71.9zM199.42 8.46C199.42 9.58 198.51 10.49 197.39 10.49 196.27 10.49 195.36 9.58 195.36 8.46 195.36 7.34 196.27 6.43 197.39 6.43 198.51 6.42 199.42 7.33 199.42 8.46z"/></g></g><ellipse cx="559.02" cy="199.92" fill="#B3EFFF" rx="3.14" ry="3.11"/><path fill="url(#b)" d="M467.33,76.31 C478.68,87.72 497.13,87.76 508.53,76.42 C519.94,65.07 519.98,46.63 508.64,35.22 C497.29,23.81 478.84,23.77 467.44,35.12 C456.03,46.46 455.98,64.91 467.33,76.31 Z"/><path fill="url(#c)" d="M309.46,77.44 C307.27,77.44 305.21,78.04 303.46,79.09 C303.04,72.97 297.95,68.14 291.73,68.14 C290.39,68.14 289.1,68.38 287.9,68.8 C286.17,63.2 280.94,59.12 274.77,59.12 C274.31,59.12 273.85,59.15 273.4,59.19 C267.63,59.55 262.83,63.46 261.16,68.77 C259.95,68.35 258.66,68.11 257.31,68.11 C251.09,68.11 246,72.94 245.58,79.06 C243.82,78.01 241.77,77.41 239.58,77.41 C233.08,77.41 227.82,82.68 227.82,89.17 C227.82,95.67 233.09,100.93 239.58,100.93 C240.01,100.93 240.44,100.9 240.86,100.86 L258.92,100.86 C259.45,100.92 259.98,100.96 260.53,100.96 C261,100.96 261.47,100.94 261.93,100.89 L287.72,100.89 C287.98,100.9 288.24,100.93 288.51,100.93 C288.78,100.93 289.04,100.9 289.3,100.89 L308.18,100.89 C308.6,100.94 309.03,100.96 309.46,100.96 C315.96,100.96 321.220014,95.69 321.220014,89.2 C321.23,82.71 315.96,77.44 309.46,77.44 Z" opacity=".3"/><g transform="translate(209 55)"><path fill="url(#d)" d="M372.94,90.88 L187.37,0.33 L186.49,0.33 L0.91,90.88 C0.91,90.88 -0.77,172.49 4.82,216.65 C11.03,265.7 35,360.3 90.34,416.76 C145.68,473.22 186.48,481.6 186.48,481.6 L187.36,481.6 C187.36,481.6 228.16,473.22 283.5,416.76 C338.84,360.3 362.81,265.7 369.02,216.65 C374.62,172.49 372.94,90.88 372.94,90.88 Z"/><path fill="#5700AE" d="M340.94,109.14 L185.31,33.2 L184.57,33.2 L28.94,109.14 C28.94,109.14 27.53,177.58 32.22,214.61 C37.43,255.75 57.53,335.08 103.94,382.43 C150.35,429.78 184.57,436.81 184.57,436.81 L185.31,436.81 C185.31,436.81 219.53,429.78 265.94,382.43 C312.35,335.08 332.45,255.75 337.66,214.61 C342.35,177.58 340.94,109.14 340.94,109.14 Z"/><path fill="url(#e)" d="M0.91,90.88 C0.91,90.88 -0.77,172.49 4.82,216.65 C11.03,265.7 35,360.3 90.34,416.76 C145.68,473.22 186.48,481.6 186.48,481.6 L186.48,0.33 L0.91,90.88 Z" opacity=".2"/></g><g transform="translate(285 153)"><path fill="url(#f)" d="M19.47,173.18 C19.47,173.18 23.19,8.12 22.84,5.86 C22.49,3.6 21.75,0.72 21.75,0.72 C21.75,0.72 20.17,3.29 19.66,6.96 C19.16,10.63 10,173.7 10,173.7 L19.47,173.18 Z"/><polygon fill="#FFF" points="21.76 .72 13.15 173.53 7.53 173.53 18.77 5.59"/><g transform="translate(0 104)"><path fill="#000" d="M81.66 164.48C81.66 164.48 80.66 174.38 80.9 181.3 81.15 188.22 83.12 198.1 83.12 198.1 83.12 198.1 85.59 194.64 94.24 195.88 102.89 197.12 103.13 199.59 103.13 199.59 103.13 199.59 111.78 179.33 113.51 172.41 115.24 165.49 117.96 160.3 117.96 160.3 117.96 160.3 114.75 154.86 113.27 151.65 111.79 148.44 110.8 145.47 110.8 145.47L99.05 168.43C99.05 168.44 88.33 167.94 81.66 164.48zM122 167.38C122 167.38 127.85 186.86 130.69 192.66 133.53 198.47 136.13 201.55 136.13 201.55 136.13 201.55 139.1 197.35 143.91 196.11 148.73 194.87 152.81 194.38 152.81 194.38 152.81 194.38 133.94 181.75 122 167.38z"/><path fill="url(#g)" d="M136.13,201.56 C136.13,201.56 135.27,203.91 135.76,207.12 C136.25,210.33 137.74,212.56 137.74,212.56 C137.74,212.56 144.16,215.77 150.09,213.92 C156.02,212.07 157.01,208.86 157.01,208.86 C157.01,208.86 158.37,205.65 158,201.94 C157.63,198.23 157.38,197.62 157.38,197.62 L152.81,194.409915 C152.8,194.4 138.47,195.26 136.13,201.56 Z"/><path fill="url(#h)" d="M137.73,212.56 C137.73,212.56 137.36,219.23 139.71,225.04 C142.06,230.85 148.23,242.71 151.32,251.11 C154.41,259.51 155.15,267.66 155.89,271.99 C156.63,276.31 156.01,278.41 156.01,278.41 C156.01,278.41 159.84,280.02 163.79,279.4 C167.74,278.78 171.82,275.69 171.82,275.69 L169.35,267.04 C169.35,267.04 165.52,254.56 165.52,248.26 C165.52,241.96 163.91,222.07 161.69,217.5 C159.47,212.93 157,208.85 157,208.85 C157,208.85 153.66,213.54 149.34,214.29 C145.02,215.03 139.83,213.91 137.73,212.56 Z"/><path fill="#FFF" d="M147.36,194.61 C147.36,194.61 150.87,203.04 151.22,205.5 C151.57,207.96 152.27,213.23 152.27,213.23 L165.97,278.93 L170.33,276.54 L164.57,250.82 L161.06,218.85 L157,208.85 C157,208.85 156.5,201.64 156.5,199.53 C156.5,197.42 152.8,194.4 152.8,194.4" opacity=".4"/><path fill="#000" d="M156.02,278.4 C156.02,278.4 153.67,282.72 152.44,284.21 C151.2,285.69 147.99,290.26 147.87,292.49 C147.75,294.71 150.96,298.17 150.96,298.17 C150.96,298.17 154.91,299.53 163.31,298.29 C171.71,297.05 174.3,293.84 174.68,291.62 C175.05,289.4 174.56,286.56 173.94,284.45 C173.32,282.35 170.36,276.54 170.36,276.54 C170.36,276.54 165.41,279.37 163.32,279.51 C159.47,279.76 156.02,278.4 156.02,278.4 Z"/><path fill="url(#i)" d="M110.8,145.48 C110.8,145.48 105.61,158.08 103.63,164.26 C101.65,170.44 101.65,170.44 101.65,170.44 C101.65,170.44 92.26,169.95 86.82,167.97 C81.39,165.99 73.92,159.14 73.92,159.14 C73.92,159.14 79.41,141.29 82.38,133.63 C85.34,125.97 88.31,121.77 88.31,121.77 C88.31,121.77 93.5,128.44 99.68,130.17 C105.86,131.9 107.34,132.15 107.34,132.15 C107.34,132.15 109.32,143.25 110.8,145.48 Z"/><path fill="#FFF" d="M101.66,170.43 C101.66,170.43 101.66,170.43 103.64,164.25 C105.62,158.07 110.81,145.47 110.81,145.47 C110.36,144.79 109.86,143.28 109.38,141.51 L99.06,168.43 C99.06,168.43 94.84,168.17 88.26,165.79 C83.09,163.93 76.95,159.15 74.54,157.18 C74.16,158.39 73.94,159.12 73.94,159.12 C73.94,159.12 81.41,165.98 86.84,167.95 C92.27,169.94 101.66,170.43 101.66,170.43 Z"/><path fill="#000" d="M69.66,56.9 C69.66,56.9 57.43,67.4 56.44,69.75 C55.45,72.1 54.71,74.07 54.71,74.07 C54.71,74.07 49.15,76.54 45.82,79.75 C42.48,82.96 40.14,86.91 40.14,86.91 C40.14,86.91 52,91.23 52.25,95.06 C52.5,98.89 52.25,104.57 52.25,104.57 C52.25,104.57 55.09,102.22 57.32,99.88 C59.54,97.53 60.66,98.22 61.77,96.91 C64.04,94.23 68.07,90.98 69.92,88.39 C71.77,85.8 72.27,84.93 73.01,84.93 C73.75,84.93 75.23,85.01 75.23,85.01 L79.43,71.83 L75.48,56.51 L69.66,56.9 Z"/><path fill="url(#j)" d="M88.32,121.76 C88.32,121.76 91.53,115.67 91.53,113.52 C91.53,111.38 91.04,105.45 89.55,103.64 C88.07,101.83 83.79,98.04 81.97,95.4 C80.16,92.76 75.22,85.02 75.22,85.02 C75.22,85.02 77.53,77.77 77.53,77.11 C77.53,76.45 82.8,48.45 82.8,48.45 C82.8,48.45 98.28,56.69 108.5,51.25 C118.71,45.81 125.88,34.53 125.88,34.53 L144.25,50.92 L157.59,121.25 L117.4,133.93 L107.35,132.12 C107.34,132.13 95.81,130.98 88.32,121.76 Z"/><path fill="url(#k)" d="M124.97,34.29 C124.97,34.29 132.47,30.5 145.56,34.13 C161.04,38.41 167.96,51.75 167.96,51.75 C167.96,51.75 159.89,51.42 153.63,51.09 C147.37,50.76 140.8,51.45 140.8,51.45 C140.8,51.45 132.39,46.64 130.41,45 C128.43,43.35 126.95,40.39 126.95,40.39 L124.97,34.29 Z"/><path fill="url(#l)" d="M92.25,62.72 C92.25,62.72 120.42,51.68 140.02,50.2 C159.62,48.72 182.32,57.76 182.32,57.76 C182.32,57.76 190.27,122.09 186.71,147.14 C181.93,180.74 162.82,197.69 162.82,197.69 C162.82,197.69 123.71,179.76 111.6,153.32 C99.5,126.88 92.25,62.72 92.25,62.72 Z"/><path fill="#FFF" d="M95.15,63.78 C95.15,63.78 123.32,52.74 142.92,51.26 C162.52,49.78 185.75,55.21 185.75,55.21 C185.75,55.21 193.18,123.14 189.62,148.19 C184.84,181.79 164.5,201.97 164.5,201.97 C164.5,201.97 126.62,180.8 114.51,154.37 C102.4,127.93 95.15,63.78 95.15,63.78 Z"/><path fill="url(#m)" d="M96.47,65.51 C96.47,65.51 123.86,54.78 142.92,53.34 C161.98,51.9 184.56,57.18 184.56,57.18 C184.56,57.18 191.79,123.24 188.32,147.59 C183.67,180.26 163.89,199.88 163.89,199.88 C163.89,199.88 127.05,179.3 115.28,153.59 C103.52,127.89 96.47,65.51 96.47,65.51 Z"/><path fill="url(#n)" d="M141.11,53.5 C122.18,55.44 96.47,65.51 96.47,65.51 C96.47,65.51 103.52,127.89 115.29,153.6 C127.06,179.31 163.9,199.89 163.9,199.89 C163.9,199.89 163.98,199.81 164.13,199.65 L141.11,53.5 Z" opacity=".5"/><path fill="url(#o)" d="M83.13,198.1 C83.13,198.1 82.14,199.67 81.48,202.79 C80.82,205.92 80.99,208.23 80.99,208.23 C80.99,208.23 87.74,212.02 93.84,212.35 C99.93,212.68 100.43,211.53 100.43,211.53 C100.43,211.53 102.9,207.25 103.23,204.94 C103.56,202.63 103.15,199.59 103.15,199.59 C103.15,199.59 100.27,196.38 94.26,195.88 C88.24,195.39 84.94,196.21 83.13,198.1 Z"/><path fill="url(#p)" d="M80.99,208.23 C80.48,207.94 77.82,215.39 77.7,229.97 C77.58,244.55 78.07,259.99 77.33,263.69 C76.59,267.4 75.35,272.46 75.35,272.46 C75.35,272.46 78.93,275.18 82.76,274.93 C86.59,274.68 89.43,272.95 89.43,272.95 C89.43,272.95 90.17,263.68 91.65,258.74 C93.13,253.8 99.31,237.25 100.42,232.55 C101.53,227.86 102.4,221.18 101.9,218.47 C101.41,215.75 100.42,211.51 100.42,211.51 C100.42,211.51 91.65,214.29 80.99,208.23 Z"/><path fill="#FFF" d="M91.15,196.72 L88.69,210.77 L80.96,274.36 L76.04,273.66 L78.85,262.42 C78.85,262.42 78.15,219.2 79.55,214.29 C80.95,209.38 80.96,209.37 80.96,209.37 C80.96,209.37 80.96,199.88 84.47,197.78 C87.99,195.67 91.15,196.72 91.15,196.72 Z" opacity=".4"/><path fill="#000" d="M75.35,272.47 C75.35,272.47 71.11,278.15 68.97,279.8 C66.83,281.45 60.16,285.48 59.33,287.21 C58.51,288.94 58.59,292.48 59.58,293.47 C60.57,294.46 65.76,295.61 71.11,294.29 C76.46,292.97 78.93,289.68 81.08,288.28 C83.22,286.88 87.5,283.59 87.75,283.17 C88,282.75 88.41,279.55 88.49,277.82 C88.57,276.09 87.83,273.62 87.83,273.62 C87.83,273.62 80,276.18 75.35,272.47 Z"/><path fill="url(#q)" d="M42.94,83.38 L22.52,81.13 C22.52,81.13 24.49,85.46 23.7,88.19 C22.92,90.92 21.67,93.12 21.67,93.12 L51.51,105.51 C51.51,105.51 55.41,97.16 54.37,94.13 C52.16,87.66 42.94,83.38 42.94,83.38 Z"/><path fill="url(#r)" d="M82.63,45.82 C82.63,45.82 70.37,45.94 63.85,49.94 C54.46,55.71 54.96,66.41 54.96,66.41 C54.96,66.41 62.87,59.66 67.15,58.5 C71.43,57.35 72.92,57.51 72.92,57.51 C72.92,57.51 68.47,64.1 70.12,69.7 C71.77,75.3 77.53,77.11 77.53,77.11 C77.53,77.11 81.98,62.62 83.46,58.17 C84.94,53.72 84.94,53.56 84.94,53.56 L82.63,45.82 Z"/><path fill="url(#s)" d="M82.63,45.82 C82.63,45.82 85.35,37.5 81.64,24.41 C79.21,15.82 83.12,3.41 89.05,1.43 C94.98,-0.55 99.92,0.44 105.6,4.64 C111.28,8.84 114.25,25.39 115.98,28.36 C117.71,31.33 125.86,34.54 125.86,34.54 C125.86,34.54 125.61,49.45 105.35,55.05 C87.71,59.93 79.16,46.81 79.16,46.81 L82.63,45.82 Z"/><polygon fill="url(#t)" points="80.16 24.66 96.47 24.41 112.28 12.8 116.73 27.38 103.64 50.85 81.89 34.79"/><polygon fill="#000" points="83.38 27.13 96.96 27.38 109.81 17.25 110.06 21.69 98.2 31.33 84.12 29.85"/><polygon fill="#000" points="14.91 76.91 13.57 100.88 12.66 102.12 9.12 100.23 10.3 76.03"/><path fill="#000" d="M13.57 100.88C13.57 100.88 15.21 103.38 14.51 106.22 13.82 109.06 12.01 110.9 9.53 110.3 7.05 109.7 6.77 106.54 7.28 104.23 7.79 101.91 9.11 100.23 9.11 100.23L12.66 102.13 13.57 100.88zM19.74 74.63C19.74 74.63 27.1 69.58 25.8 69.1 24.5 68.61.54 68.74.24 69.1-.06 69.46 2.89 73.7 4.51 74.15 6.13 74.6 19.74 74.63 19.74 74.63z"/><path fill="#1A0C4D" d="M21.83,93.16 C21.83,93.16 18.3,94.09 15.83,94.07 C13.36,94.05 11.96,93.01 11.96,93.01 L14.24,79.58 L13.28,79.09 C13.28,79.09 11.02,81.6 9.25,81.04 C7.48,80.49 5.63,78.65 6.77,77.33 C7.91,76.02 11.07,74.24 12.3,73.64 C13.52,73.05 13.49,72.66 13.85,72.74 C14.21,72.83 21.04,74.28 21.04,75.87 C21.04,77.46 21.69,79.77 22.29,81 C22.88,82.22 24.27,85.99 23.8,87.91 C23.32,89.84 21.83,93.16 21.83,93.16 Z"/><path fill="#1A0C4D" d="M11.27,74.17 C11.27,74.17 6,72.84 4.64,72.96 C3.28,73.08 1.58,74.58 1.82,75.97 C2.06,77.36 2.8,78.24 2.8,78.24 C2.8,78.24 0.78,78.96 0.51,80.36 C0.24,81.76 2.09,84.11 2.09,84.11 C2.09,84.11 0.66,85.04 1.03,86.65 C1.4,88.26 3.66,89.44 3.66,89.44 C3.66,89.44 3.38,91.91 5.1,92.71 C6.81,93.5 7.22,93.66 9.58,93.34 C11.94,93.02 13.76,91.29 13.43,90.26 C13.11,89.23 11.98,88.89 11.98,88.89 C11.98,88.89 13.14,88.03 12.69,86.71 C12.24,85.4 11.49,84.83 11.49,84.83 C11.49,84.83 12.55,84.13 12.8,82.54 C13.06,80.95 12.18,80.1 12.18,80.1 C12.18,80.1 10.07,81.5 8.59,80.76 C7.11,80.02 5.51,78.5 6.48,77.39 C7.46,76.3 11.27,74.17 11.27,74.17 Z"/><path fill="url(#u)" d="M101.25,68.34 C101.25,68.34 126.26,58.54 143.66,57.23 C161.06,55.91 181.68,60.74 181.68,60.74 C181.68,60.74 188.28,121.05 185.12,143.29 C180.88,173.12 162.82,191.04 162.82,191.04 C162.82,191.04 129.19,172.25 118.44,148.78 C107.68,125.3 101.25,68.34 101.25,68.34 Z"/><path fill="url(#v)" d="M141.74,57.59 L162.81,191.04 C162.81,191.04 187.42,167.21 186.36,123.29 C185.3,79.37 181.67,60.74 181.67,60.74 C181.67,60.74 151.93,54.07 141.74,57.59 Z"/><path fill="#FFF" d="M104.85,67.42 C104.85,67.42 114.34,140.85 124.17,153.85 C134.01,166.85 162.81,191.03 162.81,191.03 C162.81,191.03 123.47,167.55 115.74,143.66 C108.01,119.77 101.24,68.34 101.24,68.34 L104.85,67.42 Z"/></g></g><g transform="translate(163 262)"><path fill="#000" d="M58.89,202.09 C58.89,202.09 49.14,216.34 48.89,216.97 C48.64,217.6 41.1,215.46 38.34,212.95 C35.58,210.44 34.2,208.68 34.2,208.68 L39.68,196.76 L58.89,202.09 Z"/><path fill="url(#w)" d="M47.76,166.61 L49.21,157.35 C51.19,158.62 57.21,166.48 70.53,164.5 C80.78,162.98 88.01,163.97 92.95,161.74 L93.22,161.71 C93.22,161.71 94.85,168.87 94.98,171.88 C95.11,174.89 96.36,199.89 96.36,199.89 C96.36,199.89 84.23,208.1 69.36,206.55 C45.56,204.06 33.5,193.82 33.5,193.82 L47.76,166.61 Z"/><path fill="url(#x)" d="M53.11,161.94 L50.72,170.86 L38.66,185.18 L31.63,185.18 C31.63,185.18 38.66,168.73 41.17,164.46 C43.68,160.19 44.81,159.19 44.81,159.19 C44.81,159.19 48.71,161.81 53.11,161.94 Z"/><path fill="#FFF" d="M49.5,170.25 L36.38,185.17 L38.66,185.17 L50.72,170.85 L53.11,161.93 C52.78,161.92 52.46,161.89 52.14,161.86 L51.61,162.39 L49.5,170.25 Z"/><path fill="url(#y)" d="M68.99,164.92 C79.14,163.42 87.85,163.61 92.81,161.38 L93.22,161.29 C93.22,161.29 94.35,164.43 94.73,167.82 C95.11,171.21 95.99,189.55 95.99,189.55 L78.95,194.94 L59.44,173.6 L58.18,164.56 L59.03,164.37 C61.65,164.4 65.36,165.46 68.99,164.92 Z"/><path fill="#FFF" d="M95.99,189.55 C95.99,189.55 95.96,188.92 95.91,187.88 L79.52,193.25 L60.44,173.05 L59.32,165.62 L58.49,164.48 L58.19,164.55 L59.45,173.59 L78.96,194.93 L95.99,189.55 Z"/><path fill="#000" d="M93.73,201.15 L93.73,218.48 C93.73,218.48 85.94,221.62 81.92,220.87 C77.9,220.12 75.77,218.11 75.77,218.11 L74.01,206.18 C74.01,206.17 85.19,205.29 93.73,201.15 Z"/><path fill="url(#z)" d="M101.77,232.92 L94.36,246.86 L87.58,241.59 C87.58,241.59 77.28,230.04 76.4,227.52 C75.52,225.01 75.77,218.1 75.77,218.1 C75.77,218.1 80.42,220.86 82.93,221.11 C85.44,221.36 91.22,218.97 91.22,218.97 C91.22,218.97 92.1,214.2 92.6,213.19 C93.1,212.19 96.12,210.05 97.25,210.68 C98.38,211.31 97.38,217.96 97.38,217.96 C97.38,217.96 98.51,219.22 99.77,220.85 C101.03,222.48 101.65,225.62 101.65,225.62 L101.77,232.92 Z"/><path fill="url(#A)" d="M101.68,232.58 L94.35,246.85 C94.35,246.85 96.4,250.16 98.91,255.6 C101.42,261.04 100.58,266.57 100.58,266.57 C100.58,266.57 107.61,267.07 110.04,266.57 C112.47,266.07 116.65,265.9 116.65,265.9 L118.07,264.9 L118.24,258.62 C118.24,258.62 111.21,253.51 109.62,251 C108.03,248.49 107.28,243.13 105.94,237.44 C104.6,231.75 101.59,226.14 101.59,226.14 L101.68,232.58 Z"/><path fill="url(#B)" d="M116.17,265.91 L115.92,273.61 C115.92,273.61 114.33,281.56 112.99,282.48 C111.65,283.4 106.54,284.82 104.03,284.74 C101.52,284.66 100.35,284.4 100.35,284.4 C100.35,284.4 97.59,280.13 98.01,278.46 C98.43,276.79 100.94,271.6 101.36,270.26 C101.78,268.92 102.36,266.66 102.36,266.66 C102.36,266.66 108.46,267.08 116.17,265.91 Z"/><path fill="#000" d="M112.65,281.65 L115.92,272.94 C115.92,272.94 115.93,272.95 115.94,272.96 L115.92,273.61 C115.92,273.61 114.33,281.56 112.99,282.48 C111.65,283.4 106.54,284.82 104.03,284.74 C102.79,284.7 101.88,284.62 101.27,284.54 C106.47,283.87 112.65,281.65 112.65,281.65 Z"/><path fill="url(#C)" d="M48.89,216.97 L49.69,222.96 L47.18,232.76 L33.7,237.7 C33.7,237.7 31.52,231.25 31.52,230.92 C31.52,230.58 31.77,222.04 31.77,222.04 C31.77,222.04 30.43,218.61 30.51,216.6 C30.59,214.59 32.69,209.4 32.69,209.4 L34.2,208.4 C34.2,208.4 36.96,212.5 40.65,214.43 C44.33,216.34 48.89,216.97 48.89,216.97 Z"/><path fill="url(#D)" d="M30.52,216.59 C30.6,214.58 32.7,209.39 32.7,209.39 L34.21,208.39 C34.21,208.39 36.97,212.49 40.66,214.42 C44.34,216.35 48.91,216.97 48.91,216.97 L49.71,222.96 C49.71,222.96 35.66,222.96 31.7,221.78 C31.37,220.94 30.45,218.27 30.52,216.59 Z"/><path fill="url(#E)" d="M82.93,221.11 C85.44,221.36 91.22,218.97 91.22,218.97 C91.22,218.97 92.1,214.2 92.6,213.19 C93.1,212.19 96.12,210.05 97.25,210.68 C98.38,211.31 97.38,217.96 97.38,217.96 C97.38,217.96 98.51,219.22 99.77,220.85 C100.71,222.07 101.29,224.12 101.53,225.09 L96.31,232.66 L88.46,237.43 L83.11,236.41 C80.21,232.99 76.9,228.89 76.41,227.51 C75.53,225 75.78,218.09 75.78,218.09 C75.78,218.09 80.42,220.86 82.93,221.11 Z"/><polygon fill="#FFF" points="81.92 220.86 89.13 237.58 94.36 246.86 87.57 241.58 76.4 227.52 75.87 218.85" opacity=".4"/><path fill="url(#F)" d="M49.69,222.96 C49.69,222.96 50.95,224.22 49.36,229.91 C47.77,235.6 44.25,248.25 44.25,248.25 C44.25,248.25 44.33,253.02 44.33,253.86 C44.33,254.7 46.51,260.64 46.51,261.56 C46.51,262.48 46.01,264.24 45.09,265.08 C44.17,265.92 42.75,267.42 42.75,267.42 L38.98,266.67 L27.93,259.47 L25.75,256.29 C25.75,256.29 30.52,248.92 31.11,246.41 C31.7,243.9 32.37,233.6 32.37,233.6 L33.71,237.7 L47.19,232.76 L49.69,222.96 Z"/><path fill="url(#G)" d="M42.74,267.41 C42.74,267.41 42.82,270.17 41.07,271.18 C39.31,272.18 38.64,272.1 37.47,272.1 C36.3,272.1 29.77,272.27 29.77,272.27 C29.77,272.27 16.54,276.12 12.86,275.95 C9.18,275.78 6.66,274.61 6.66,274.61 C6.66,274.61 6.74,272.43 9.67,270.26 C12.6,268.08 22.9,262.89 24.82,261.3 C26.75,259.71 27.33,258.54 27.33,258.54 L27.92,259.46 L38.97,266.66 L42.74,267.41 Z"/><path fill="#000" d="M37.97,270.09 C40.13,269.7 41.42,267.97 41.88,267.24 L42.74,267.41 C42.74,267.41 42.82,270.17 41.07,271.18 C39.31,272.18 38.64,272.1 37.47,272.1 C36.3,272.1 29.77,272.27 29.77,272.27 C29.77,272.27 16.54,276.12 12.86,275.95 C12.19,275.92 11.55,275.86 10.97,275.77 C14.31,275.06 35.42,270.56 37.97,270.09 Z"/><path fill="url(#H)" d="M60.54,104.1 L43.98,109.3 C43.98,109.3 41.86,115.98 39.64,119.93 C37.42,123.87 36.86,125.63 36.86,125.63 L54.78,121.63 C54.78,121.63 55.81,112.28 57.57,108.57 C59.33,104.88 60.54,104.1 60.54,104.1 Z"/><path fill="url(#I)" d="M57.19,110.4 C57.19,110.4 53.86,110.51 51.04,109.03 C48.22,107.55 48.22,107.55 48.22,107.55 C48.22,107.55 52.41,102.29 57.3,101.52 C62.19,100.75 68.33,101.33 68.33,101.33 L66.53,102.49 L59.77,104.39 C59.77,104.4 57.45,108.35 57.19,110.4 Z"/><path fill="url(#J)" d="M97.49,128.83 C97.49,128.83 91.89,141.35 91.01,143.58 C90.12,145.81 89.6,148.14 89.6,148.14 C89.6,148.14 79.6,149.38 68.33,147.26 C57.05,145.14 53.51,143.37 53.51,143.37 C53.51,143.37 52.76,137.7 53.3,131.57 C55.47,106.93 60.43,103.83 60.43,103.83 L65.38,102.68 L88.79,108.27 L97.49,128.83 Z"/><path fill="#FFF" d="M64.51,107.55 L66.05,102.22 L60.41,103.82 C60.41,103.82 55.46,106.92 53.28,131.56 C52.74,137.69 53.49,143.36 53.49,143.36 C53.49,143.36 54.98,144.1 59.08,145.2 C60.6,133.29 64.51,107.55 64.51,107.55 Z" opacity=".5"/><path fill="#000" d="M89.52,150.72 L89.59,148.13 C89.59,148.13 78.4,149.43 66.35,146.83 C54.3,144.23 53.5,143.36 53.5,143.36 L52.4299954,145.8 C52.42,145.8 68.86,151.84 89.52,150.72 Z"/><path fill="url(#K)" d="M88.8,98.57 C88.8,98.57 91.12,93.39 91.78,92.28 C92.44,91.16 97.21,81.89 95.66,76.58 C94.1,71.27 87.79,68.37 82.8,68.8 C77.81,69.23 76.52,71.04 76.52,71.04 L75.9,68.61 C75.9,68.61 72.13,71.2 69.91,75.1 C67.69,79 66.88,81.56 66.88,81.56 L62.46,81.19 C62.46,81.19 65.68,94.53 66.82,95.72 C67.96,96.91 69.66,97.99 69.66,97.99 L67.12,101.45 C67.12,101.44 80.99,101.59 88.8,98.57 Z"/><path fill="#000" d="M88.8,98.57 C80.99,101.6 67.12,101.45 67.12,101.45 L69.66,97.99 C69.66,97.99 84.03,96.99 90,95.94 C89.35,97.33 88.8,98.57 88.8,98.57 Z"/><path fill="url(#L)" d="M89.35,76.92 C90.15,76.17 94.33,77.67 92.27,80.93 C90.63,83.53 83.2,89.8 83.2,89.8 L69.67,97.98 C69.67,97.98 67.97,96.9 66.83,95.71 C65.69,94.52 62.47,81.18 62.47,81.18 L66.89,81.55 L82.28,82.89 C82.26,82.89 88.96,77.28 89.35,76.92 Z"/><path fill="#1A0C4D" d="M91.54,80.01 C91.76,79.21 91.3,78.38 90.5,78.15 C89.7,77.93 88.87,78.39 88.64,79.19 C88.42,79.99 88.88,80.82 89.68,81.05 C90.49,81.28 91.32,80.81 91.54,80.01 Z"/><polygon fill="#000" points="78.81 82.38 78.9 81.36 67.32 80.59 66.87 81.55"/><path fill="url(#M)" d="M88.97,98.72 L94.27,103.99 C94.27,103.99 83.12,109.34 75.96,109.29 C68.8,109.24 63.87,107.53 63.87,107.53 L65.36,102.67 L67.12,101.44 C67.12,101.44 77.16,101 80.43,100.56 C82.58,100.27 88.8,98.56 88.8,98.56 L88.97,98.72 Z"/><path fill="url(#N)" d="M94.27,103.99 C94.27,103.99 105.69,106.03 107.91,109.77 C110.83,114.7 109.2,118.41 109.2,118.41 C109.2,118.41 108.8,117.52 106.99,117.21 C105.19,116.9 104.13,116.93 104.13,116.93 C104.13,116.93 99.92,117.77 99.1,121.39 C98.28,125.01 98.93,128.97 98.93,128.97 C98.93,128.97 91.63,127.94 87.22,125.64 C82.38,123.12 79.66,114.18 81.75,111.17 C83.83,108.17 84.47,107.76 84.47,107.76 C84.47,107.76 92.08,105.53 94.27,103.99 Z"/><path fill="url(#O)" d="M108.65,118.07 L109.47,120.71 C109.47,120.71 100.85,123.31 100.7,123.14 C100.55,122.97 99.62,120.03 99.62,120.03 L107.66,117.39 L108.65,118.07 Z"/><path fill="url(#P)" d="M107.23,117.34 C107.01,117.21 105.13,116.69 103,117.33 C100.86,117.97 99.82,119.83 99.82,119.83 L107.23,117.34 Z"/><polygon fill="url(#Q)" points="109.06 120.79 111.15 125.68 103.34 127.73 101.24 123.1"/><polygon fill="url(#R)" points="110.74 125.76 112.73 130.49 105.85 132.74 103.72 127.77"/><path fill="url(#S)" d="M113.03,132.47 C113.03,132.47 112.61,132.81 111.73,133.87 C110.85,134.93 110.76,137.32 110.83,137.53 C110.9,137.75 107.61,136.69 107.61,136.69 C107.61,136.69 106.4,134.26 106.37,133.67 C106.34,133.07 112.35,130.72 112.35,130.72 L113.03,132.47 Z"/><path fill="url(#T)" d="M118.37,144.6 C118.37,144.6 113.29,140.37 112.04,139.04 C110.78,137.71 110.83,137.53 110.83,137.53 C110.83,137.53 110.72,135.35 111.73,133.87 C112.73,132.39 113.94,132.27 113.94,132.27 C113.94,132.27 117.21,133.84 118.37,144.6 Z"/><path fill="url(#U)" d="M107.61,136.69 C107.61,136.69 105.07,135.98 102.67,135.7 C100.27,135.42 99.56,135.87 99.61,135.69 C99.66,135.51 96.8,130.6 96.8,130.6 L97.49,128.84 L98.95,128.99 C98.95,128.99 98.38,125.9 98.75,123.65 C99.12,121.41 99.63,120.05 99.63,120.05 C99.63,120.05 106.12,126.44 106.05,126.68 C105.98,126.92 109.47,132.86 109.4,133.1 C109.33,133.34 109.47,137.03 109.17,136.95 C108.87,136.85 107.61,136.69 107.61,136.69 Z"/><path fill="url(#V)" d="M118.37,144.6 C118.37,144.6 118.55,147 117.94,148 C117.33,149 114.06,153.24 114.06,153.24 C114.06,153.24 110.45,153.34 108.84,153.02 C107.23,152.7 106.06,152.24 106.06,152.24 C106.06,152.24 113.92,148.64 114.45,147.42 C114.99,146.2 115.46,144.05 115.46,144.05 L112.7,139.69 L118.37,144.6 Z"/><path fill="url(#W)" d="M106.41,152.13 C106.23,152.08 103.17,152.53 102.02,152.2 C100.87,151.88 98.4,150.21 98.4,150.21 C98.4,150.21 102.1,148.18 102.4,147.35 C102.7,146.52 103.94,143.02 103.6,142.14 C103.26,141.26 99.61,135.67 99.61,135.67 C99.61,135.67 103.22,135.58 105.64,136.25 C108.06,136.93 110.83,137.51 110.83,137.51 L115.46,144.03 L114.45,147.4 L106.41,152.13 Z"/><path fill="#1A0C4D" d="M99.89,148.97 L95.43,149.46 C95.43,149.46 90.98,146.17 90.72,145.86 C90.46,145.55 90.48,144.85 90.72,144.64 C90.96,144.43 91.28,144.43 91.28,144.43 C91.28,144.43 90.2,143.44 90.65,142.83 C91.1,142.22 91.37,142.14 91.37,142.14 C91.37,142.14 89.74,141.36 90.2,140.36 C90.66,139.37 90.66,139.37 90.66,139.37 C90.66,139.37 89.89,138.76 89.82,138.17 C89.75,137.58 89.75,137.58 89.75,137.58 L93.39,136.41 L97.21,134.7 C97.21,134.7 99.86,134.28 100.1,134.65 C100.34,135.02 104.53,140.82 104.53,140.82 L103.59,146.33 C103.58,146.33 100.59,148.66 99.89,148.97 Z"/><polygon fill="#000" points="98.64 149.14 99.79 153.9 99.44 154.9 96.73 154.34 95.43 149.46"/><path fill="#000" d="M99.79 153.9C99.79 153.9 101.35 155.23 101.45 157.24 101.55 159.25 100.71 160.81 98.97 160.89 97.22 160.98 96.42 158.95 96.31 157.33 96.2 155.7 96.73 154.34 96.73 154.34L99.44 154.9 99.79 153.9zM98.2 134.45C98.2 134.45 99.94 131.6 98.99 131.54 98.04 131.47 87.44 135.32 87.32 135.61 87.19 135.9 88.87 137.4 90.03 137.39005 91.19 137.36 98.2 134.45 98.2 134.45z"/><path fill="url(#X)" d="M95.37,132.65 C95.37,132.65 63.74,4.89 63.07,3.47 C62.4,2.05 61.35,0.3 61.35,0.3 C61.35,0.3 60.81,2.3 61.19,4.82 C61.57,7.33 91.36,134.07 91.36,134.07 L95.37,132.65 Z"/><polyline fill="#FFF" points="93.52 133.38 61.35 .29 63.15 2.81 95.37 132.65"/><path fill="url(#Y)" d="M51.74,83.44 C51.74,83.44 38.21,77.69 33.02,75.65 C27.83,73.61 23.33,72.93 23.33,72.93 C23.33,72.93 1.08,150.19 0.7,152.23 C0.32,154.27 1.04,156.23 2.24,156.47 C3.44,156.71 16.65,155.92 28.51,143.23 C34.57,136.75 41.13,119.82 46.19,104.54 C51.28,89.27 51.74,83.44 51.74,83.44 Z"/><path fill="#FFF" d="M22.01,77.05 C22.01,77.05 26.64,77.68 33.58,80.42 C40.52,83.16 45.15,85.68 45.15,85.68 C45.15,85.68 39.89,107.98 35.68,118.71 C31.47,129.44 23.9,142.48 23.9,142.48 C23.9,142.48 35.05,128.8 40.94,108.82 C46.83,88.84 47.45,85.47 47.45,85.47 C47.45,85.47 36.14,78.11 22.44,76.01" opacity=".7"/><path fill="url(#Z)" d="M1.36,149.81 C1.42,150.34 1.52,150.84 1.68,151.24 C2.36,152.99 9.79,152.63 19.04,146.44 C28.3,140.25 33.27,128.07 36.82,119.59 C40.37,111.11 47.46,85.46 47.46,85.46 C47.46,85.46 40.95,81.88 34.89,79.79 C30.93,78.42 25.64,76.89 22.45,76 C23.01,74.05 23.33,72.94 23.33,72.94 C23.33,72.94 27.83,73.62 33.02,75.66 C38.21,77.7 51.74,83.45 51.74,83.45 C51.74,83.45 51.28,89.28 46.21,104.56 C41.14,119.84 34.58,136.77 28.53,143.25 C16.67,155.94 3.46,156.73 2.26,156.49 C1.06,156.25 0.34,154.29 0.72,152.25 C0.75,152.05 0.97,151.19 1.36,149.81 Z"/><path fill="url(#aa)" d="M89.52,150.72 C89.52,150.72 91.8,155.14 92.73,158.79 C93.66,162.44 94.33,165.63 94.33,165.63 C94.33,165.63 81.34,169.16 64.34,167 C47.34,164.84 43.77,158.49 43.77,158.49 L46.52,153.78 L53.26,146.02 C53.27,146.04 67.94,151.85 89.52,150.72 Z"/><path fill="url(#ab)" d="M44.21,157.76 C50.6,164.06 61.93,166.53 75.32,166.39 C87.95,166.26 93.11,164.51 94.02,164.16 C94.22,165.07 94.34,165.63 94.34,165.63 C94.34,165.63 81.35,169.16 64.35,167 C47.35,164.84 43.78,158.49 43.78,158.49 L44.21,157.76 Z"/></g><g transform="translate(483 255)"><path fill="url(#ac)" d="M27.55,117.93 C27.55,117.93 29.56,131.49 29.81,133.88 C30.06,136.27 29.94,138.65 29.94,138.65 C29.94,138.65 39.23,142.54 50.66,143.55 C62.09,144.55 65.98,143.8 65.98,143.8 C65.98,143.8 68.12,138.52 69.37,132.5 C70.63,126.47 70,103.87 70,103.87 L65.54,101.42 L41.49,100.48 L27.55,117.93 Z"/><path fill="url(#ad)" d="M70.88,161.64 L70.48,161.6 C68.5,162.87 62.47,165.63 49.15,163.65 C38.9,162.13 30.62,159.01 25.68,156.77 L25.41,156.74 C25.41,156.74 23.78,163.9 23.65,166.91 C23.52,169.92 22.27,194.92 22.27,194.92 C22.27,194.92 34.33,201.2 49.27,201.58 C64.22,201.96 83.3,199.57 83.3,199.57 L70.88,161.64 Z"/><path fill="url(#ae)" d="M62.31,163.84 L64.7,172.76 L76.76,187.08 L83.79,187.08 C83.79,187.08 76.76,170.63 74.25,166.36 C71.74,162.09 70.61,161.09 70.61,161.09 C70.61,161.09 66.7,163.72 62.31,163.84 Z"/><path fill="#FFF" d="M65.68,172.44 L63.64,163.73 C63.2,163.79 62.76,163.84 62.3,163.85 L64.69,172.77 L76.75,187.09 L83.78,187.09 C83.78,187.09 83.68,186.86 83.51,186.46 L77.05,185.78 L65.68,172.44 Z"/><path fill="url(#af)" d="M49.15,163.23 C39,161.73 30.78,158.65 25.83,156.42 L25.42,156.33 C25.42,156.33 24.29,159.47 23.91,162.86 C23.53,166.25 22.65,184.59 22.65,184.59 L34.46,190.74 L58.07,173.16 L59.33,164.12 L58.48,163.93 C55.86,163.95 52.78,163.76 49.15,163.23 Z"/><path fill="#FFF" d="M34.69,188.99 L22.75,182.54 C22.69,183.8 22.65,184.58 22.65,184.58 L34.46,190.73 L58.07,173.15 L59.33,164.11 L58.48,163.92 L56.85,172.16"/><path fill="#000" d="M24.91 196.18L24.91 213.51C24.91 213.51 32.7 216.65 36.72 215.9 40.74 215.15 42.87 213.14 42.87 213.14L44.63 201.21C44.63 201.2 33.45 200.32 24.91 196.18zM62.34 201.32C62.34 201.32 69.5 211.37 69.75 212 70 212.63 77.54 210.49 80.3 207.98 83.06 205.47 84.44 203.71 84.44 203.71L82.18 199.31 62.34 201.32z"/><path fill="url(#ag)" d="M16.87,227.95 L24.28,241.89 L31.06,236.62 C31.06,236.62 41.36,225.07 42.24,222.55 C43.12,220.04 42.87,213.13 42.87,213.13 C42.87,213.13 38.22,215.89 35.71,216.14 C33.2,216.39 27.42,214 27.42,214 C27.42,214 26.54,209.23 26.04,208.22 C25.54,207.22 22.52,205.08 21.39,205.71 C20.26,206.34 21.26,212.99 21.26,212.99 C21.26,212.99 20.13,214.25 18.87,215.88 C17.61,217.51 16.99,220.65 16.99,220.65 L16.87,227.95 Z"/><path fill="url(#ah)" d="M16.96,227.61 L24.29,241.88 C24.29,241.88 22.24,245.19 19.73,250.63 C17.22,256.07 18.06,261.6 18.06,261.6 C18.06,261.6 11.03,262.1 8.6,261.6 C6.17,261.1 1.99,260.93 1.99,260.93 L0.57,259.93 L0.4,253.65 C0.4,253.65 7.43,248.54 9.02,246.03 C10.61,243.52 11.36,238.16 12.7,232.47 C14.04,226.78 17.05,221.17 17.05,221.17 L16.96,227.61 Z"/><path fill="url(#ai)" d="M2.47,260.94 L2.72,268.64 C2.72,268.64 4.31,276.59 5.65,277.51 C6.99,278.43 12.1,279.85 14.61,279.77 C17.12,279.69 18.29,279.43 18.29,279.43 C18.29,279.43 21.05,275.16 20.63,273.49 C20.21,271.82 17.7,266.63 17.28,265.29 C16.86,263.95 16.28,261.69 16.28,261.69 C16.28,261.69 10.18,262.11 2.47,260.94 Z"/><path fill="#000" d="M5.99,276.68 L2.72,267.97 C2.72,267.97 2.71,267.98 2.7,267.99 L2.72,268.64 C2.72,268.64 4.31,276.59 5.65,277.51 C6.99,278.43 12.1,279.85 14.61,279.77 C15.85,279.73 16.76,279.65 17.37,279.57 C12.17,278.9 5.99,276.68 5.99,276.68 Z"/><path fill="url(#aj)" d="M69.75,212 L68.95,217.99 L71.46,227.79 L84.94,232.73 C84.94,232.73 87.12,226.28 87.12,225.95 C87.12,225.61 86.87,217.07 86.87,217.07 C86.87,217.07 88.21,213.64 88.13,211.63 C88.05,209.62 85.95,204.43 85.95,204.43 L84.44,203.43 C84.44,203.43 81.68,207.53 77.99,209.46 C74.31,211.37 69.75,212 69.75,212 Z"/><path fill="url(#ak)" d="M88.12,211.62 C88.04,209.61 85.94,204.42 85.94,204.42 L84.43,203.42 C84.43,203.42 81.67,207.52 77.98,209.45 C74.3,211.38 69.73,212 69.73,212 L68.93,217.99 C68.93,217.99 82.98,217.99 86.94,216.81 C87.27,215.97 88.19,213.3 88.12,211.62 Z"/><path fill="url(#al)" d="M35.71,216.14 C33.2,216.39 27.42,214 27.42,214 C27.42,214 26.54,209.23 26.04,208.22 C25.54,207.22 22.52,205.08 21.39,205.71 C20.26,206.34 21.26,212.99 21.26,212.99 C21.26,212.99 20.13,214.25 18.87,215.88 C17.93,217.1 17.35,219.15 17.11,220.12 L22.33,227.69 L30.18,232.46 L35.53,231.44 C38.43,228.02 41.74,223.92 42.23,222.54 C43.11,220.03 42.86,213.12 42.86,213.12 C42.86,213.12 38.22,215.89 35.71,216.14 Z"/><path fill="url(#am)" d="M68.95,217.99 C68.95,217.99 67.69,219.25 69.28,224.94 C70.87,230.63 74.39,243.28 74.39,243.28 C74.39,243.28 74.31,248.05 74.31,248.89 C74.31,249.73 72.13,255.67 72.13,256.59 C72.13,257.51 72.63,259.27 73.55,260.11 C74.47,260.95 75.89,262.45 75.89,262.45 L79.66,261.7 L90.71,254.5 L92.89,251.32 C92.89,251.32 88.12,243.95 87.53,241.44 C86.94,238.93 86.27,228.63 86.27,228.63 L84.93,232.73 L71.45,227.79 L68.95,217.99 Z"/><path fill="url(#an)" d="M75.9,262.44 C75.9,262.44 75.82,265.2 77.57,266.21 C79.33,267.21 80,267.13 81.17,267.13 C82.34,267.13 88.87,267.3 88.87,267.3 C88.87,267.3 102.1,271.15 105.78,270.98 C109.46,270.81 111.98,269.64 111.98,269.64 C111.98,269.64 111.9,267.46 108.97,265.29 C106.04,263.11 95.74,257.92 93.82,256.33 C91.89,254.74 91.31,253.57 91.31,253.57 L90.72,254.49 L79.67,261.69 L75.9,262.44 Z"/><path fill="#000" d="M80.67 265.12C78.51 264.73 77.22 263 76.76 262.27L75.9 262.44C75.9 262.44 75.82 265.2 77.57 266.21 79.33 267.21 80 267.13 81.17 267.13 82.34 267.13 88.87 267.3 88.87 267.3 88.87 267.3 102.1 271.15 105.78 270.98 106.45 270.95 107.09 270.89 107.67 270.8 104.33 270.09 83.21 265.59 80.67 265.12zM29.31 141.17L29.94 138.66C29.94 138.66 40.36 142.93 52.67 143.68 64.98 144.43 65.98 143.81 65.98 143.81L66.36 146.45C66.35 146.44 48.9 147.82 29.31 141.17z"/><path fill="url(#ao)" d="M44.08,91.14 C44.08,91.14 43.24,85.53 42.91,84.27 C42.58,83.01 40.48,72.8 43.41,68.11 C46.34,63.42 53.21,62.33 57.89,64.09 C62.58,65.85 63.33,67.94 63.33,67.94 L64.59,65.76 C64.59,65.76 67.52,69.28 68.61,73.63 C69.7,77.98 69.78,80.66 69.78,80.66 L74.13,81.5 C74.13,81.5 67.43,93.47 66.01,94.31 C64.59,95.15 62.66,95.73 62.66,95.73 L64.17,99.7500829 C64.18,99.77 50.78,96.17 44.08,91.14 Z"/><path fill="#000" d="M44.08,91.14 C50.78,96.16 64.17,99.76 64.17,99.76 L62.66,95.74 C62.66,95.74 49.1,90.9 43.63,88.27 C43.88,89.8 44.08,91.14 44.08,91.14 Z"/><path fill="url(#ap)" d="M49.4,70.15 C48.83,69.21 44.4,69.52 45.51,73.23 C46.39,76.18 51.85,84.22 51.85,84.22 L62.67,95.75 C62.67,95.75 64.6,95.16 66.02,94.33 C67.44,93.49 74.14,81.52 74.14,81.52 L69.79,80.68 L54.61,77.81 C54.61,77.81 49.68,70.61 49.4,70.15 Z"/><path fill="#1A0C4D" d="M46.45,72.53 C46.45,71.7 47.12,71.02 47.96,71.02 C48.79,71.02 49.47,71.69 49.47,72.53 C49.47,73.36 48.8,74.04 47.96,74.04 C47.12,74.04 46.45,73.37 46.45,72.53 Z"/><polygon fill="#000" points="58.07 78.25 58.25 77.24 69.62 79.63 69.79 80.68"/><path fill="url(#aq)" d="M43.87,91.25 L37.34,94.89 C37.34,94.89 46.63,103.05 53.54,104.94 C60.45,106.82 65.66,106.51 65.66,106.51 L65.53,101.42 L64.17,99.77 C64.17,99.77 54.62,96.63 51.59,95.33 C49.6,94.48 44.08,91.14 44.08,91.14 L43.87,91.25 Z"/><path fill="url(#ar)" d="M37.34,94.89 C37.34,94.89 25.8,93.77 22.65,96.77 C18.51,100.73 19.07,104.74 19.07,104.74 C19.07,104.74 19.7,103.99 21.52,104.18 C23.34,104.37 24.35,104.68 24.35,104.68 C24.35,104.68 28.18,106.63 27.99,110.33 C27.8,114.03 26.11,117.68 26.11,117.68 C26.11,117.68 29.52,118.11 34.48,117.73 C39.44,117.35 48.65,108.64 47.46,105.19 C46.27,101.74 45.76,101.17 45.76,101.17 C45.76,101.17 39.04,96.96 37.34,94.89 Z"/><path fill="url(#as)" d="M19.7,104.56 L18.19,106.88 C18.19,106.88 25.79,111.71 25.98,111.59 C26.17,111.46 27.86,108.89 27.86,108.89 L20.83,104.18 L19.7,104.56 Z"/><path fill="url(#at)" d="M21.27,104.25 C21.52,104.19 23.47,104.19 25.35,105.38 C27.23,106.57 27.74,108.65 27.74,108.65 L21.27,104.25 Z"/><polygon fill="url(#au)" points="18.57 107.07 15.24 111.22 22.21 115.3 25.48 111.4"/><polygon fill="url(#av)" points="15.62 111.4 12.41 115.42 18.44 119.44 21.83 115.23"/><path fill="url(#aw)" d="M11.6,117.24 C11.6,117.24 11.91,117.68 12.48,118.94 C13.05,120.2 12.48,122.52 12.35,122.71 C12.22,122.9 15.68,122.77 15.68,122.77 C15.68,122.77 17.5,120.76 17.69,120.2 C17.88,119.63 12.73,115.74 12.73,115.74 L11.6,117.24 Z"/><path fill="url(#ax)" d="M3.18,127.48 C3.18,127.48 9.21,124.78 10.78,123.84 C12.35,122.9 12.35,122.71 12.35,122.71 C12.35,122.71 13.04,120.64 12.48,118.94 C11.92,117.24 10.78,116.8 10.78,116.8 C10.78,116.8 7.2,117.43 3.18,127.48 Z"/><path fill="url(#ay)" d="M15.68,122.77 C15.68,122.77 18.32,122.77 20.7,123.15 C23.09,123.53 23.65,124.15 23.65,123.97 C23.65,123.78 27.73,119.83 27.73,119.83 L27.54,117.95 L26.1,117.7 C26.1,117.7 27.48,114.87 27.73,112.61 C27.98,110.35 27.86,108.91 27.86,108.91 C27.86,108.91 19.89,113.31 19.89,113.56 C19.89,113.81 14.93,118.58 14.93,118.83 C14.93,119.08 13.8,122.6 14.11,122.6 C14.42,122.58 15.68,122.77 15.68,122.77 Z"/><path fill="url(#az)" d="M3.18,127.48 C3.18,127.48 2.36,129.74 2.68,130.87 C2.99,132 5,136.96 5,136.96 C5,136.96 8.45,138.03 10.09,138.15 C11.72,138.28 12.98,138.15 12.98,138.15 C12.98,138.15 6.39,132.56 6.2,131.24 C6.01,129.92 6.14,127.72 6.14,127.72 L9.97,124.27 L3.18,127.48 Z"/><path fill="url(#aA)" d="M12.67,137.97 C12.86,137.97 15.68,139.23 16.88,139.23 C18.07,139.23 20.9,138.29 20.9,138.29 C20.9,138.29 17.89,135.34 17.82,134.46 C17.76,133.58 17.51,129.88 18.07,129.12 C18.64,128.37 23.66,123.97 23.66,123.97 C23.66,123.97 20.21,122.9 17.69,122.9 C15.17,122.9 12.35,122.71 12.35,122.71 L6.13,127.73 L6.19,131.25 L12.67,137.97 Z"/><path fill="#1A0C4D" d="M20.95,138.03 L25.22,139.41 C25.22,139.41 30.24,137.09 30.56,136.84 C30.87,136.59 31,135.9 30.81,135.65 C30.62,135.4 30.31,135.34 30.31,135.34 C30.31,135.34 31.57,134.59 31.25,133.9 C30.94,133.21 30.68,133.08 30.68,133.08 C30.68,133.08 32.44,132.64 32.19,131.57 C31.94,130.5 31.94,130.5 31.94,130.5 C31.94,130.5 32.82,130.06 33.01,129.5 C33.2,128.93 33.2,128.93 33.2,128.93 L29.87,127.05 L26.48,124.6 C26.48,124.6 23.97,123.66 23.65,123.97 C23.34,124.28 18.06,129.12 18.06,129.12 L17.87,134.71 C17.88,134.7 20.33,137.59 20.95,138.03 Z"/><polygon fill="#000" points="22.15 138.45 20.05 142.88 20.2 143.93 22.96 143.93 25.23 139.41"/><path fill="#000" d="M20.05 142.88C20.05 142.88 18.25 143.86 17.75 145.81 17.25 147.76 17.75 149.45 19.45 149.89 21.15 150.33 22.34 148.51 22.78 146.94 23.22 145.37 22.97 143.93 22.97 143.93L20.21 143.93 20.05 142.88zM25.54 124.15C25.54 124.15 24.41 121.01 25.35 121.14 26.29 121.27 35.9 127.17 35.96 127.48 36.02 127.79 34.08 128.92 32.95 128.67 31.82 128.42 25.54 124.15 25.54 124.15z"/><path fill="url(#aB)" d="M28.68,122.96 C28.68,122.96 85.45,4.22 86.39,2.96 C87.33,1.7 88.71,0.2 88.71,0.2 C88.71,0.2 88.84,2.27 87.96,4.66 C87.08,7.05 32.32,125.16 32.32,125.16 L28.68,122.96 Z"/><polyline fill="#FFF" points="30.34 124.04 88.71 .2 86.44 2.3 28.68 122.96"/><path fill="url(#aC)" d="M66.26,90.1 C66.26,90.1 80.83,88.22 86.38,87.66 C91.93,87.1 96.44,87.66 96.44,87.66 C96.44,87.66 97,168.06 96.82,170.12 C96.63,172.19 95.41,173.88 94.19,173.79 C92.97,173.7 80.46,169.37 72.47,153.95 C68.39,146.07 66.64,128 65.89,111.92 C65.13,95.83 66.26,90.1 66.26,90.1 Z"/><path fill="#FFF" d="M96.12,91.92 C96.12,91.92 86.02,91.64 80.69,92.48 C75.36,93.32 71.57,94.16 71.57,94.16 C71.57,94.16 70.02,105.4 72.27,128.1 C74.23,147.88 78.44,156.43 78.44,156.43 C78.44,156.43 73.39,151.8 71.01,129.78 C68.05,102.44 69.83,93.19 69.83,93.19 C69.83,93.19 84.6,89.89 96.46,90.83" opacity=".7"/><path fill="url(#aD)" d="M96.85,167.6 C96.65,168.09 96.42,168.55 96.16,168.89 C95.03,170.39 87.98,168.04 80.74,159.58 C73.5,151.12 72,138.05 70.87,128.93 C69.74,119.81 69.84,93.2 69.84,93.2 C69.84,93.2 77.08,91.51 83.47,91.13 C87.65,90.88 93.16,90.84 96.47,90.84 C96.46,88.81 96.45,87.65 96.45,87.65 C96.45,87.65 91.94,87.09 86.39,87.65 C80.84,88.21 66.27,90.09 66.27,90.09 C66.27,90.09 65.14,95.83 65.89,111.91 C66.64,127.99 68.39,146.06 72.47,153.94 C80.46,169.36 92.97,173.69 94.19,173.78 C95.41,173.87 96.63,172.18 96.82,170.11 C96.83,169.92 96.85,169.04 96.85,167.6 Z"/><path fill="url(#aE)" d="M29.31,141.17 C29.31,141.17 25.92,144.81 24.04,148.08 C22.16,151.35 20.65,154.23 20.65,154.23 C20.65,154.23 32.2,161.14 49.16,163.65 C66.11,166.16 71.26,161.01 71.26,161.01 L69.88,155.74 L65.48,146.45 C65.48,146.44 49.78,148.08 29.31,141.17 Z"/><path fill="url(#aF)" d="M71.04,160.18 C63.18,164.52 51.61,163.84 38.76,160.09 C26.64,156.55 22.13,153.48 21.36,152.9 C20.92,153.72 20.65,154.23 20.65,154.23 C20.65,154.23 32.2,161.14 49.16,163.65 C66.11,166.16 71.26,161.01 71.26,161.01 L71.04,160.18 Z"/><path fill="#FFF" d="M36.72,215.89 L31.53,231.76 L23.96,241.02 L18.28,254.49 L24.29,241.89 L31.07,236.62 C31.07,236.62 35.15,231.83 35.55,231.45 C35.95,231.07 42.54,221.53 42.54,221.53 L42.87,213.13 L36.72,215.89 Z" opacity=".4"/></g><path fill="url(#aG)" d="M476.26,122.56 C480.09,122.56 483.67,123.61 486.74,125.44 C487.47,114.76 496.36,106.33 507.22,106.33 C509.87,106.33 512.4,106.84 514.72,107.75 C517.68,97.85 526.85,90.63 537.71,90.63 C550.97,90.63 561.71,101.38 561.71,114.63 C561.71,114.97 561.7,115.31 561.68,115.64 C561.69,115.64 561.7,115.64 561.71,115.64 C574.96,115.64 585.71,126.39 585.71,139.64 C585.71,152.9 574.96,163.64 561.71,163.64 C560.88,163.64 560.06,163.6 559.26,163.52 L478.5,163.52 C477.76,163.6 477.02,163.64 476.26,163.64 C464.92,163.64 455.72,154.44 455.72,143.1 C455.72,131.76 464.91,122.56 476.26,122.56 Z" opacity=".6"/><g transform="translate(615 337)"><path fill="url(#aH)" d="M23.68,76.76 C23.68,76.76 21,80.85 19.89,79.95 C18.78,79.05 14.65,76.13 11.77,74.92 C8.89,73.7 6.2,71.72 3.62,72.04 C1.04,72.35 0.44,73.93 0.44,73.93 C0.44,73.93 2.21,74.06 3.6,74.95 C4.99,75.85 5.43,76.46 5.43,76.46 C5.43,76.46 4.33,76.71 3.39,77.58 C2.44,78.45 2.16,79.22 2.16,79.22 C2.16,79.22 3.73,79.16 5.37,80.1 C7,81.04 9.63,81.35 11.12,82.05 C12.61,82.75 13.77,84.08 17.17,85.91 C20.58,87.74 21.01,88.26 21.87,87.96 C22.73,87.67 24,86.08 25.28,84.4 C26.55,82.72 27.45,81.9 27.45,81.9"/><path fill="url(#aI)" d="M39.3,46.32 C39.3,46.32 31.76,31.38 29.61,28.68 C27.46,25.99 25.73,25.9 22.68,27.7 C19.62,29.49 14.49,31.81 14.49,31.81 C14.49,31.81 10.24,30.43 7.69,31.91 C5.14,33.39 4.05,35.03 4.05,35.03 L6.69,34.57 C6.69,34.57 5.54,36.64 5.13,37.71 C4.72,38.77 4.75,39.62 4.75,39.62 C4.75,39.62 6.75,37.52 7.73,36.88 C8.71,36.24 9.12,35.54 9.12,35.54 C9.12,35.54 7.76,39.16 8.13,41.13 C8.5,43.1 9.95,44.17 9.95,44.17 C9.95,44.17 10.56,41.38 10.77,40.37 C10.98,39.36 11.61,37.78 11.61,37.78 C11.61,37.78 12.13,42.61 13.16,44.02 C14.19,45.43 14.19,45.43 14.19,45.43 C14.19,45.43 14.4,41.32 14.69,39.86 C14.99,38.4 15.67,36.83 15.67,36.83 C15.67,36.83 16.81,38.1 16.71,38.96 C16.61,39.82 16.61,39.82 16.61,39.82 C16.61,39.82 19.02,38.28 19,36.89 C18.97,35.51 17.96,34.4 17.96,34.4 L25.43,31.28 C25.43,31.28 30.14,42.14 29.94,43.68 C29.74,45.23 28.36,51.29 28.36,51.29"/><path fill="url(#aJ)" d="M77.86,14.72 C76.91,17.64 78.51,20.79 81.43,21.74 C84.35,22.69 87.5,21.09 88.45,18.17 C89.4,15.25 87.8,12.1 84.88,11.15 C81.95,10.2 78.81,11.8 77.86,14.72 Z"/><path fill="#000" d="M81.36,18.01 C81,19.1 81.6,20.28 82.7,20.64 C83.79,21 84.97,20.4 85.33,19.3 C85.69,18.21 85.09,17.03 83.99,16.67 C82.9,16.32 81.72,16.92 81.36,18.01 Z"/><path fill="#FFF" d="M83.09,16.86 C82.84,17.62 83.26,18.43 84.01,18.67 C84.77,18.92 85.58,18.5 85.82,17.75 C86.07,17 85.65,16.18 84.9,15.94 C84.15,15.69 83.34,16.11 83.09,16.86 Z"/><path fill="url(#aK)" d="M79.56,12.05 C79.56,12.05 77.44,10.72 76.54,8.36 C75.64,6 71.38,-0.25 65.8,0.72 C60.22,1.69 57.27,3.92 55.71,10.9 C54.15,17.88 55,18.47 53.93,21 C52.87,23.52 50.54,25.79 50.54,25.79 C50.54,25.79 50.93,26.79 53.49,28.98 C56.04,31.17 56.93,30.66 56.93,30.66 C56.93,30.66 59.88,24.29 60.03,18.92 C60.19,13.55 59.85,7.47 63.91,5.29 C67.97,3.1 71.66,6.94 73.31,9.46 C74.96,11.99 76.07,14.19 77.85,14.72 C77.86,14.72 78.06,13.47 79.56,12.05 Z"/><path fill="url(#aL)" d="M83.55,10.8 C83.55,10.8 80.31,12.93 79.38,14.78 C78.46,16.63 78.16,19 78.16,19 C78.16,19 76.7,15.66 78.53,13.22 C80.37,10.8 83.55,10.8 83.55,10.8 Z"/><path fill="url(#aM)" d="M29.56,8.23 C29.43,10.74 27.29,12.67 24.78,12.54 C22.27,12.41 20.34,10.27 20.48,7.76 C20.61,5.25 22.75,3.32 25.26,3.45 C27.76,3.59 29.69,5.73 29.56,8.23 Z"/><path fill="#000" d="M25.92,9.72 C25.87,10.66 25.07,11.38 24.13,11.33 C23.19,11.28 22.47,10.48 22.52,9.54 C22.57,8.6 23.37,7.88 24.31,7.93 C25.25,7.98 25.97,8.78 25.92,9.72 Z"/><path fill="#FFF" d="M24.94,8.33 C24.91,8.98 24.35,9.48 23.7,9.44 C23.05,9.4 22.55,8.85 22.59,8.2 C22.62,7.55 23.18,7.05 23.82,7.09 C24.47,7.13 24.97,7.68 24.94,8.33 Z"/><path fill="url(#aN)" d="M29.04,5.7 C29.04,5.7 31.04,5.31 32.43,3.77 C33.81,2.23 38.89,-1.28 42.85,1.09 C46.82,3.47 48.42,6.03 47.56,11.81 C46.7,17.59 45.88,17.79 45.95,20.03 C46.02,22.26 47.13,24.68 47.13,24.68 C47.13,24.68 46.54,25.33 43.95,26.25 C41.36,27.17 40.84,26.52 40.84,26.52 C40.84,26.52 40.46,20.8 41.91,16.66 C43.36,12.52 45.4,7.98 42.95,5.13 C40.5,2.28 36.56,4.11 34.56,5.56 C32.56,7 31.07,8.35 29.56,8.24 C29.56,8.23 29.77,7.22 29.04,5.7 Z"/><path fill="url(#aO)" d="M26.36,3.57 C26.36,3.57 28.21,6.15 28.37,7.83 C28.53,9.51 28.06,11.41 28.06,11.41 C28.06,11.41 30.15,9.29 29.47,6.9 C28.79,4.51 26.36,3.57 26.36,3.57 Z"/><path fill="url(#aP)" d="M65.15,61.69 C65.06,61.38 60.2,41.91 59.54,37.08 C58.88,32.25 57.71,25.33 49.67,23.83 C41.63,22.33 39.27,30.56 39.27,30.56 C39.27,30.56 35.26,33.08 36.47,34.51 C37.68,35.94 39.93,36.35 39.93,36.35 L39.78,42.2 C39.78,42.2 36.28,42.42 36.01,44 C35.73,45.58 36.46,47.01 36.46,47.01 C36.46,47.01 28.06,51.52 22.78,53.79 C17.5,56.06 6.23,67.92 17.6,76.8 C18.31,77.35 19.05,77.89 19.8,78.41 C31.16,86.18 47.46,89.52 58.12,81.79 C66.16,75.96 66.57,66.82 65.15,61.69 Z"/><path fill="url(#aQ)" d="M45.42,82.78 C45.42,82.78 43.86,87.89 45.02,88.7 C46.17,89.51 49.15,90.51 52.28,91.58 C55.41,92.65 59.37,93.48 60.68,94.81 C62,96.15 62.31,96.9 62.31,96.9 C62.31,96.9 60.64,96.56 58.89,96.59 C57.15,96.63 55.65,97.26 55.65,97.26 C55.65,97.26 56.41,97.55 57.15,99.88 C57.88,102.21 57.88,102.21 57.88,102.21 C57.88,102.21 54.11,99.56 52.44,99.29 C50.77,99.02 46.95,97.59 43.75,96.74 C40.55,95.9 36.06,95.01 36.54,92.57 C37.02,90.13 38,89.81 38.1,87.31 C38.2,84.81 37.7,82.62 37.7,82.62"/><path fill="url(#aR)" d="M64.87,59.98 C64.87,59.98 67.58,53.68 68.4,52.17 C69.22,50.66 80.46,44.04 80.46,44.04 L85.09,51.67 C85.09,51.67 83.47,52 82.55,53.21 C81.63,54.42 82.78,57.37 82.78,57.37 C82.78,57.37 82.78,57.37 83.25,56.53 C83.72,55.7 85.56,55.3 85.56,55.3 C85.56,55.3 85.16,57.15 84.47,58.64 C83.79,60.13 81.3,63.93 81.3,63.93 C81.3,63.93 81.3,63.93 83.14,63.34 C84.98,62.75 88.57,58.79 88.57,58.79 C88.57,58.79 88.11,60.62 87.64,61.65 C87.17,62.68 85.9,65.56 85.9,65.56 C85.9,65.56 87.88,65.55 89.49,64.03 C91.1,62.51 92.24,58.41 92.24,58.41 C92.24,58.41 92.15,59.3 92.61,60.51 C93.07,61.71 93.49,64.88 93.49,64.88 C93.49,64.88 94.06,64.14 94.39,62.93 C94.72,61.72 95.04,59.12 95.04,59.12 L97.09,61.24 C97.09,61.24 97.18,59.07 95.86,56.1 C94.55,53.13 89.86,51.6 89.86,51.6 C89.86,51.6 86.79,46.21 85.23,42.63 C83.67,39.05 82.08,38 78.42,39.01 C74.76,40.01 58.34,48.43 58.34,48.43 C58.34,48.43 53.9,52.2 56.74,57.49 C59.59,62.79 64.87,59.98 64.87,59.98 Z"/><g transform="translate(39 32)"><path fill="url(#aS)" d="M11.83,8.46 L11.13,10.62 L9.35,8.01 L8,10.32 L6.51,7.56 L4.69,9.84 L3.63,7.58 L2.56,9.39 L0.79,7.41 C0.82,6.67 0.84,6 0.84,5.48 C0.86,3.22 0.5,2.5 0.5,2.5 L8.72,0.39 C8.72,0.39 13.9,5.78 14.32,9.62 C14.37,10.05 14.38,10.5 14.36,10.95 L11.83,8.46 Z"/><path fill="#FFF" d="M2.04,11 L3.18,9.7 L4.39,11.85 L6.1,9.78 L8.13,12.35 L9.6,10.28 L11.28,13.45 L12.82,10.92 L14.24,12.25 C13.74,15.4 11.84,18.44 8.99,18.63 C5.33,18.87 0.51,13.12 0.51,13.12 C0.51,13.12 0.66,10.59 0.76,8.27 L2.04,11 Z"/></g><path fill="#FFF" d="M13.98,66.99 C13.98,66.99 15.23,60.26 21.23,56.46 C27.23,52.66 34.93,50.8 41.15,53.62 C47.37,56.44 57.97,70.2 47.46,76.9 C39.61,81.9 27.43,81.18 19.47,75.13 C16.78,73.07 14.49,70.92 13.98,66.99 Z" opacity=".3"/></g><g transform="translate(178 148)"><path fill="url(#aT)" d="M50.86,71.34 C50.86,71.34 52.51,74.9 51.43,75.27 C50.35,75.64 46.61,77.23 44.56,78.67 C42.51,80.12 40.02,81.11 39.14,83 C38.26,84.89 39.08,85.97 39.08,85.97 C39.08,85.97 39.91,84.82 41.11,84.25 C42.31,83.68 42.91,83.64 42.91,83.64 C42.91,83.64 42.62,84.49 42.81,85.51 C43,86.52 43.41,87.04 43.41,87.04 C43.41,87.04 44.03,85.94 45.37,85.22 C46.7,84.5 48.03,82.84 49.14,82.13 C50.25,81.41 51.64,81.19 54.34,79.64 C57.03,78.09 57.57,78.02 57.73,77.31 C57.89,76.6 57.35,75.06 56.74,73.48 C56.13,71.9 55.95,70.94 55.95,70.94"/><path fill="url(#aU)" d="M36.73,47.8 C36.73,47.8 23.35,46.61 20.6,46.94 C17.85,47.27 17.07,48.41 16.99,51.25 C16.92,54.09 16.32,58.57 16.32,58.57 C16.32,58.57 13.58,60.88 13.5,63.25 C13.43,65.62 14.08,67.05 14.08,67.05 L14.89,65.06 C14.89,65.06 15.82,66.73 16.37,67.45 C16.92,68.18 17.51,68.52 17.51,68.52 C17.51,68.52 16.92,66.27 16.91,65.33 C16.89,64.39 16.59,63.81 16.59,63.81 C16.59,63.81 18.48,66.27 19.99,66.85 C21.49,67.43 22.83,66.9 22.83,66.9 C22.83,66.9 21.19,65.3 20.59,64.73 C19.99,64.16 19.18,63.06 19.18,63.06 C19.18,63.06 22.69,64.75 24.09,64.64 C25.49,64.53 25.49,64.53 25.49,64.53 C25.49,64.53 22.77,62.65 21.9,61.83 C21.03,61.01 20.25,59.88 20.25,59.88 C20.25,59.88 21.6,59.64 22.14,60.07 C22.69,60.51 22.69,60.51 22.69,60.51 C22.69,60.51 22.66,58.21 21.7,57.64 C20.75,57.07 19.56,57.29 19.56,57.29 L20.59,50.87 C20.59,50.87 29.99,52.26 30.96,53.05 C31.93,53.84 35.48,57.35 35.48,57.35"/><path fill="url(#aV)" d="M31.51,8.13 C33.1,10.02 35.92,10.26 37.81,8.67 C39.7,7.08 39.94,4.26 38.35,2.37 C36.76,0.48 33.94,0.24 32.05,1.83 C30.16,3.42 29.92,6.24 31.51,8.13 Z"/><path fill="#000" d="M35.24,7.13 C35.83,7.84 36.89,7.93 37.6,7.33 C38.31,6.74 38.4,5.68 37.8,4.97 C37.21,4.26 36.15,4.17 35.44,4.77 C34.74,5.37 34.65,6.43 35.24,7.13 Z"/><path fill="#FFF" d="M35.19,5.47 C35.6,5.96 36.33,6.02 36.82,5.61 C37.31,5.2 37.37,4.47 36.96,3.98 C36.55,3.49 35.82,3.43 35.33,3.84 C34.84,4.25 34.78,4.98 35.19,5.47 Z"/><path fill="url(#aW)" d="M30.42,5.83 C30.42,5.83 28.62,6.71 26.62,6.33 C24.63,5.94 18.56,6.2 16.86,10.41 C15.16,14.62 15.43,17.58 19.53,21.6 C23.63,25.62 24.39,25.3 25.66,27.09 C26.93,28.88 27.49,31.43 27.49,31.43 C27.49,31.43 28.34,31.59 30.91,30.77 C33.48,29.95 33.51,29.14 33.51,29.14 C33.51,29.14 30.42,24.43 26.82,22.05 C23.23,19.67 18.94,17.32 19.17,13.63 C19.4,9.94 23.58,9.04 25.99,8.99 C28.41,8.94 30.38,9.11 31.5,8.12 C31.51,8.13 30.75,7.46 30.42,5.83 Z"/><path fill="url(#aX)" d="M31.25,2.58 C31.25,2.58 31.33,5.69 32.2,7.11 C33.07,8.52 34.57,9.73 34.57,9.73 C34.57,9.73 31.67,9.31 30.79,7.03 C29.9,4.76 31.25,2.58 31.25,2.58 Z"/><path fill="url(#aY)" d="M6.63,38.31 C8.28,39.46 8.69,41.74 7.54,43.39 C6.39,45.04 4.11,45.45 2.46,44.3 C0.81,43.15 0.4,40.87 1.55,39.22 C2.7,37.57 4.98,37.16 6.63,38.31 Z"/><path fill="#000" d="M6.11,41.42 C6.73,41.85 6.88,42.7 6.45,43.32 C6.02,43.94 5.17,44.09 4.55,43.66 C3.93,43.23 3.78,42.38 4.21,41.76 C4.63,41.14 5.49,40.99 6.11,41.42 Z"/><path fill="#FFF" d="M4.75,41.5 C5.18,41.8 5.28,42.39 4.99,42.81 C4.69,43.24 4.1,43.34 3.68,43.05 C3.25,42.75 3.15,42.16 3.44,41.74 C3.73,41.31 4.32,41.2 4.75,41.5 Z"/><path fill="url(#aZ)" d="M4.69,37.59 C4.69,37.59 5.27,36.06 4.81,34.46 C4.35,32.87 4.1,27.91 7.4,26.22 C10.7,24.52 13.12,24.52 16.7,27.55 C20.28,30.58 20.07,31.23 21.62,32.13 C23.17,33.03 25.29,33.29 25.29,33.29 C25.29,33.29 25.48,33.97 25.01,36.12 C24.54,38.27 23.88,38.36 23.88,38.36 C23.88,38.36 19.82,36.2 17.61,33.45 C15.4,30.71 13.17,27.4 10.19,27.86 C7.2,28.32 6.79,31.79 6.93,33.76 C7.07,35.73 7.35,37.32 6.64,38.31 C6.63,38.31 6.03,37.74 4.69,37.59 Z"/><path fill="url(#ba)" d="M2.1,38.52 C2.1,38.52 4.64,38.35 5.85,38.95 C7.06,39.55 8.16,40.68 8.16,40.68 C8.16,40.68 7.6,38.35 5.68,37.8 C3.77,37.25 2.1,38.52 2.1,38.52 Z"/><path fill="url(#bb)" d="M58.15,36.69 C57.9,36.62 42.57,31.69 39,30.09 C35.43,28.49 30.21,26.36 25.79,31.2 C21.36,36.04 25.97,41.14 25.97,41.14 C25.97,41.14 25.99,44.94 27.48,44.72 C28.97,44.5 30.2,43.14 30.2,43.14 L34.12,45.72 C34.12,45.72 32.79,48.19 33.75,49.05 C34.71,49.91 36,50.02 36,50.02 C36,50.02 35.52,57.66 34.83,62.22 C34.14,66.78 37.45,79.49 48.32,75.5 C49,75.25 49.68,74.98 50.35,74.68 C60.46,70.22 69.64,60.53 68.88,49.99 C68.31,42.04 62.25,37.89 58.15,36.69 Z"/><path fill="url(#bc)" d="M64.18,59.07 C64.18,59.07 67,62.3 68.04,61.85 C69.08,61.41 71.02,59.8 73.08,58.12 C75.14,56.44 77.38,54.09 78.84,53.76 C80.31,53.43 80.96,53.53 80.96,53.53 C80.96,53.53 80.02,54.53 79.3,55.73 C78.59,56.93 78.39,58.23 78.39,58.23 C78.39,58.23 78.91,57.83 80.81,58.32 C82.71,58.81 82.71,58.81 82.71,58.81 C82.71,58.81 79.31,60.26 78.42,61.28 C77.53,62.31 74.93,64.3 73,66.13 C71.07,67.96 68.56,70.64 67.1,69.28 C65.64,67.92 65.84,67.12 64.17,65.99 C62.51,64.86 60.8,64.28 60.8,64.28"/><path fill="url(#bd)" d="M56.87,36.16 C56.87,36.16 53.73,31.65 53.04,30.45 C52.36,29.25 52.61,18.78 52.61,18.78 L59.77,18.86 C59.77,18.86 59.31,20.1 59.74,21.25 C60.18,22.39 62.67,22.86 62.67,22.86 C62.67,22.86 62.67,22.86 62.3,22.19 C61.93,21.52 62.44,20.1 62.44,20.1 C62.44,20.1 63.53,21.16 64.25,22.25 C64.98,23.35 66.51,26.65 66.51,26.65 C66.51,26.65 66.51,26.65 66.89,25.15 C67.27,23.65 66.09,19.52 66.09,19.52 C66.09,19.52 67.14,20.61 67.65,21.37 C68.16,22.13 69.58,24.21 69.58,24.21 C69.58,24.21 70.41,22.85 70.06,21.11 C69.71,19.37 67.39,16.85 67.39,16.85 C67.39,16.85 67.96,17.29 68.98,17.49 C70,17.68 72.33,18.74 72.33,18.74 C72.33,18.74 72.07,18.04 71.38,17.3 C70.69,16.56 69.06,15.25 69.06,15.25 L71.37,14.75 C71.37,14.75 69.93,13.77 67.35,13.41 C64.77,13.05 61.74,15.59 61.74,15.59 C61.74,15.59 56.76,15.4 53.66,14.95 C50.56,14.49 49.17,15.14 48.3,18.06 C47.43,20.98 46.22,35.74 46.22,35.74 C46.22,35.74 46.91,40.37 51.72,40.67 C56.55,40.95 56.87,36.16 56.87,36.16 Z"/><g transform="translate(28 35)"><path fill="url(#be)" d="M9.61,2.45 L10.79,3.85 L8.26,3.96 L9.26,5.86 L6.75,5.71 L7.53,7.91 L5.54,7.68 L6.32,9.17 L4.22,9.54 C3.73,9.21 3.28,8.91 2.93,8.69 C1.39,7.72 0.75,7.66 0.75,7.66 L2.79,1.17 C2.79,1.17 8.66,-0.08 11.46,1.26 C11.77,1.41 12.09,1.59 12.39,1.79 L9.61,2.45 Z"/><path fill="#FFF" d="M7.2,10.21 L6.8,8.88 L8.78,8.96 L8.09,6.92 L10.71,6.63 L9.92,4.75 L12.79,4.95 L11.72,2.83 L13.23,2.43 C15.17,4.11 16.44,6.69 15.36,8.71 C13.97,11.31 8.01,12.16 8.01,12.16 C8.01,12.16 6.35,10.99 4.81,9.93 L7.2,10.21 Z"/></g><path fill="#FFF" d="M40.09,73.81 C40.09,73.81 36.03,70.1 35.98,64.41 C35.93,58.71 37.92,52.68 42.48,49.63 C47.04,46.58 60.91,45.19 61.02,55.19 C61.1,62.66 55.45,70.65 47.96,73.52 C45.43,74.49 42.99,75.14 40.09,73.81 Z" opacity=".3"/></g><g transform="translate(27 256)"><path fill="url(#bf)" d="M42.66,94.06 C42.66,94.06 40.46,98.8 41.9,99.3 C43.34,99.8 48.33,101.91 51.06,103.84 C53.79,105.77 57.11,107.1 58.28,109.61 C59.45,112.13 58.36,113.57 58.36,113.57 C58.36,113.57 57.25,112.03 55.65,111.27 C54.05,110.51 53.24,110.46 53.24,110.46 C53.24,110.46 53.63,111.6 53.38,112.95 C53.13,114.3 52.59,114.99 52.59,114.99 C52.59,114.99 51.76,113.52 49.98,112.57 C48.2,111.62 46.44,109.4 44.96,108.45 C43.48,107.49 41.62,107.19 38.03,105.13 C34.44,103.07 33.72,102.96 33.51,102.02 C33.29,101.07 34.02,99.02 34.83,96.91 C35.64,94.8 35.88,93.52 35.88,93.52"/><path fill="url(#bg)" d="M61.49,62.68 C61.49,62.68 79.33,61.1 82.99,61.53 C86.65,61.96 87.7,63.49 87.8,67.27 C87.89,71.06 88.69,77.03 88.69,77.03 C88.69,77.03 92.35,80.11 92.44,83.27 C92.54,86.42 91.67,88.34 91.67,88.34 L90.59,85.68 C90.59,85.68 89.36,87.9 88.62,88.87 C87.89,89.84 87.1,90.29 87.1,90.29 C87.1,90.29 87.88,87.29 87.9,86.04 C87.92,84.79 88.33,84.02 88.33,84.02 C88.33,84.02 85.81,87.3 83.8,88.07 C81.79,88.84 80.01,88.14 80.01,88.14 C80.01,88.14 82.2,86.01 83,85.25 C83.8,84.49 84.88,83.02 84.88,83.02 C84.88,83.02 80.2,85.27 78.33,85.13 C76.46,84.99 76.46,84.99 76.46,84.99 C76.46,84.99 80.08,82.48 81.24,81.39 C82.4,80.3 83.43,78.79 83.43,78.79 C83.43,78.79 81.63,78.47 80.91,79.05 C80.18,79.63 80.18,79.63 80.18,79.63 C80.18,79.63 80.22,76.57 81.49,75.81 C82.76,75.05 84.34,75.35 84.34,75.35 L82.96,66.8 C82.96,66.8 70.43,68.65 69.14,69.71 C67.85,70.77 63.12,75.44 63.12,75.44"/><path fill="url(#bh)" d="M68.45,9.8 C66.33,12.31 62.57,12.64 60.06,10.52 C57.54,8.4 57.22,4.64 59.34,2.13 C61.46,-0.39 65.22,-0.71 67.73,1.41 C70.24,3.53 70.56,7.29 68.45,9.8 Z"/><path fill="#000" d="M63.47,8.47 C62.68,9.41 61.27,9.53 60.33,8.74 C59.39,7.95 59.27,6.54 60.06,5.6 C60.85,4.66 62.26,4.54 63.2,5.33 C64.14,6.13 64.27,7.53 63.47,8.47 Z"/><path fill="#FFF" d="M63.54,6.25 C62.99,6.9 62.02,6.98 61.37,6.44 C60.72,5.89 60.64,4.92 61.19,4.27 C61.74,3.62 62.71,3.54 63.36,4.09 C64.01,4.63 64.09,5.6 63.54,6.25 Z"/><path fill="url(#bi)" d="M69.91,6.74 C69.91,6.74 72.31,7.92 74.97,7.4 C77.63,6.88 85.71,7.23 87.97,12.84 C90.23,18.46 89.88,22.4 84.41,27.75 C78.95,33.11 77.93,32.68 76.24,35.06 C74.55,37.45 73.8,40.85 73.8,40.85 C73.8,40.85 72.67,41.06 69.24,39.97 C65.81,38.88 65.78,37.79 65.78,37.79 C65.78,37.79 69.9,31.51 74.69,28.34 C79.48,25.17 85.19,22.03 84.89,17.12 C84.59,12.2 79.02,11.01 75.79,10.94 C72.56,10.87 69.93,11.1 68.44,9.79 C68.45,9.8 69.46,8.91 69.91,6.74 Z"/><path fill="url(#bj)" d="M68.79,2.41 C68.79,2.41 68.68,6.56 67.52,8.44 C66.36,10.32 64.37,11.93 64.37,11.93 C64.37,11.93 68.23,11.37 69.41,8.34 C70.59,5.31 68.79,2.41 68.79,2.41 Z"/><path fill="url(#bk)" d="M101.61,50.03 C99.4,51.56 98.86,54.6 100.4,56.8 C101.94,59 104.97,59.55 107.17,58.01 C109.38,56.48 109.92,53.44 108.39,51.24 C106.84,49.04 103.81,48.5 101.61,50.03 Z"/><path fill="#000" d="M102.31,54.17 C101.49,54.74 101.28,55.88 101.86,56.7 C102.44,57.52 103.57,57.73 104.39,57.15 C105.22,56.58 105.42,55.44 104.85,54.62 C104.27,53.8 103.14,53.6 102.31,54.17 Z"/><path fill="#FFF" d="M104.12,54.29 C103.55,54.69 103.41,55.47 103.81,56.04 C104.21,56.61 104.99,56.75 105.56,56.35 C106.13,55.95 106.27,55.17 105.87,54.6 C105.48,54.03 104.7,53.89 104.12,54.29 Z"/><path fill="url(#bl)" d="M104.2,49.07 C104.2,49.07 103.42,47.03 104.04,44.9 C104.66,42.78 104.99,36.18 100.59,33.91 C96.19,31.65 92.96,31.64 88.19,35.68 C83.42,39.72 83.7,40.58 81.63,41.78 C79.56,42.98 76.74,43.33 76.74,43.33 C76.74,43.33 76.48,44.24 77.11,47.11 C77.74,49.98 78.62,50.09 78.62,50.09 C78.62,50.09 84.03,47.21 86.97,43.55 C89.91,39.89 92.89,35.48 96.87,36.1 C100.85,36.72 101.4,41.33 101.21,43.97 C101.02,46.6 100.64,48.72 101.6,50.03 C101.61,50.03 102.41,49.27 104.2,49.07 Z"/><path fill="url(#bm)" d="M107.64,50.3 C107.64,50.3 104.26,50.07 102.64,50.88 C101.02,51.68 99.56,53.18 99.56,53.18 C99.56,53.18 100.31,50.08 102.86,49.35 C105.43,48.62 107.64,50.3 107.64,50.3 Z"/><path fill="url(#bn)" d="M32.94,47.87 C33.27,47.77 53.71,41.21 58.47,39.07 C63.23,36.94 70.18,34.1 76.08,40.55 C81.98,47.01 75.83,53.8 75.83,53.8 C75.83,53.8 75.8,58.87 73.82,58.58 C71.84,58.29 70.19,56.47 70.19,56.47 L64.96,59.91 C64.96,59.91 66.74,63.21 65.46,64.35 C64.18,65.49 62.46,65.64 62.46,65.64 C62.46,65.64 63.1,75.82 64.02,81.9 C64.94,87.98 60.53,104.92 46.04,99.6 C45.14,99.27 44.23,98.9 43.33,98.51 C29.86,92.57 17.62,79.65 18.63,65.6 C19.4,55.01 27.47,49.47 32.94,47.87 Z"/><path fill="url(#bo)" d="M24.91,77.7 C24.91,77.7 21.15,82 19.76,81.41 C18.37,80.82 15.79,78.68 13.05,76.44 C10.31,74.2 7.32,71.07 5.37,70.63 C3.41,70.19 2.55,70.32 2.55,70.32 C2.55,70.32 3.81,71.65 4.76,73.25 C5.71,74.85 5.98,76.58 5.98,76.58 C5.98,76.58 5.29,76.05 2.76,76.7 C0.23,77.35 0.23,77.35 0.23,77.35 C0.23,77.35 4.76,79.28 5.95,80.65 C7.14,82.02 10.6,84.68 13.17,87.11 C15.74,89.54 19.09,93.12 21.03,91.31 C22.97,89.5 22.71,88.43 24.93,86.92 C27.15,85.42 29.42,84.64 29.42,84.64"/><path fill="url(#bp)" d="M34.65,47.16 C34.65,47.16 38.84,41.14 39.75,39.54 C40.66,37.94 40.32,23.99 40.32,23.99 L30.77,24.09 C30.77,24.09 31.39,25.75 30.8,27.27 C30.22,28.79 26.89,29.41 26.89,29.41 C26.89,29.41 26.89,29.41 27.39,28.51 C27.88,27.61 27.2,25.72 27.2,25.72 C27.2,25.72 25.75,27.13 24.78,28.59 C23.81,30.05 21.76,34.46 21.76,34.46 C21.76,34.46 21.76,34.46 21.26,32.46 C20.76,30.46 22.33,24.95 22.33,24.95 C22.33,24.95 20.93,26.4 20.26,27.41 C19.58,28.42 17.68,31.2 17.68,31.2 C17.68,31.2 16.57,29.39 17.04,27.07 C17.51,24.75 20.6,21.39 20.6,21.39 C20.6,21.39 19.84,21.98 18.49,22.24 C17.13,22.5 14.02,23.91 14.02,23.91 C14.02,23.91 14.37,22.98 15.28,22 C16.2,21.02 18.37,19.26 18.37,19.26 L15.29,18.59 C15.29,18.59 17.21,17.28 20.65,16.8 C24.09,16.31 28.13,19.71 28.13,19.71 C28.13,19.71 34.76,19.46 38.9,18.85 C43.03,18.24 44.88,19.1 46.04,22.99 C47.2,26.89 48.82,46.56 48.82,46.56 C48.82,46.56 47.9,52.73 41.49,53.13 C35.07,53.54 34.65,47.16 34.65,47.16 Z"/><g transform="translate(52 46)"><path fill="url(#bq)" d="M8.31,2.89 L6.74,4.75 L10.12,4.89 L8.78,7.42 L12.13,7.22 L11.09,10.16 L13.74,9.85 L12.7,11.84 L15.5,12.33 C16.15,11.89 16.76,11.49 17.22,11.19 C19.27,9.89 20.12,9.82 20.12,9.82 L17.4,1.17 C17.4,1.17 9.58,-0.49 5.85,1.29 C5.43,1.49 5.02,1.73 4.61,2 L8.31,2.89 Z"/><path fill="#FFF" d="M11.53,13.23 L12.07,11.46 L9.43,11.57 L10.35,8.85 L6.86,8.46 L7.91,5.95 L4.08,6.22 L5.51,3.4 L3.49,2.86 C0.91,5.09 -0.79,8.53 0.66,11.23 C2.51,14.69 10.46,15.83 10.46,15.83 C10.46,15.83 12.67,14.27 14.72,12.86 L11.53,13.23 Z"/></g><path fill="#FFF" d="M57.01,97.35 C57.01,97.35 62.42,92.41 62.49,84.82 C62.55,77.22 59.9,69.18 53.82,65.12 C47.74,61.06 29.25,59.2 29.11,72.53 C29,82.49 36.53,93.14 46.52,96.96 C49.9,98.25 53.15,99.11 57.01,97.35 Z" opacity=".3"/></g><g transform="translate(599 146)"><path fill="url(#br)" d="M31.47,67.75 C31.47,67.75 29.89,71.16 30.93,71.52 C31.97,71.88 35.56,73.4 37.52,74.78 C39.48,76.17 41.87,77.12 42.72,78.93 C43.56,80.74 42.77,81.78 42.77,81.78 C42.77,81.78 41.97,80.68 40.82,80.13 C39.67,79.58 39.09,79.55 39.09,79.55 C39.09,79.55 39.37,80.37 39.19,81.34 C39.01,82.31 38.62,82.81 38.62,82.81 C38.62,82.81 38.02,81.76 36.74,81.07 C35.46,80.38 34.19,78.79 33.13,78.1 C32.07,77.41 30.73,77.19 28.15,75.71 C25.57,74.22 25.05,74.15 24.9,73.47 C24.74,72.79 25.26,71.31 25.85,69.8 C26.43,68.28 26.6,67.36 26.6,67.36"/><path fill="url(#bs)" d="M45.02,45.17 C45.02,45.17 57.86,44.03 60.49,44.34 C63.12,44.65 63.88,45.75 63.95,48.47 C64.02,51.2 64.59,55.49 64.59,55.49 C64.59,55.49 67.22,57.71 67.29,59.98 C67.36,62.25 66.73,63.63 66.73,63.63 L65.96,61.72 C65.96,61.72 65.07,63.32 64.54,64.01 C64.01,64.71 63.45,65.03 63.45,65.03 C63.45,65.03 64.01,62.87 64.03,61.97 C64.05,61.07 64.34,60.52 64.34,60.52 C64.34,60.52 62.53,62.88 61.08,63.44 C59.64,64 58.35,63.49 58.35,63.49 C58.35,63.49 59.93,61.96 60.5,61.41 C61.07,60.87 61.85,59.81 61.85,59.81 C61.85,59.81 58.48,61.43 57.14,61.33 C55.8,61.23 55.8,61.23 55.8,61.23 C55.8,61.23 58.41,59.42 59.24,58.64 C60.07,57.85 60.82,56.77 60.82,56.77 C60.82,56.77 59.53,56.54 59.01,56.96 C58.49,57.38 58.49,57.38 58.49,57.38 C58.49,57.38 58.52,55.17 59.44,54.63 C60.36,54.09 61.49,54.3 61.49,54.3 L60.5,48.15 C60.5,48.15 51.49,49.48 50.56,50.24 C49.63,51 46.23,54.37 46.23,54.37"/><path fill="url(#bt)" d="M50.02,7.13 C48.49,8.94 45.79,9.17 43.98,7.65 C42.17,6.12 41.94,3.42 43.46,1.61 C44.99,-0.2 47.69,-0.43 49.5,1.09 C51.32,2.61 51.55,5.31 50.02,7.13 Z"/><path fill="#000" d="M46.45,6.17 C45.88,6.85 44.87,6.93 44.19,6.36 C43.51,5.79 43.43,4.78 44,4.1 C44.57,3.42 45.58,3.34 46.26,3.91 C46.93,4.48 47.02,5.49 46.45,6.17 Z"/><path fill="#FFF" d="M46.5,4.57 C46.11,5.04 45.41,5.1 44.94,4.7 C44.47,4.31 44.41,3.61 44.81,3.14 C45.2,2.67 45.9,2.61 46.37,3.01 C46.83,3.41 46.89,4.1 46.5,4.57 Z"/><path fill="url(#bu)" d="M51.08,4.93 C51.08,4.93 52.81,5.78 54.72,5.41 C56.63,5.04 62.45,5.29 64.08,9.33 C65.71,13.37 65.45,16.21 61.52,20.06 C57.59,23.91 56.86,23.6 55.64,25.32 C54.42,27.04 53.89,29.48 53.89,29.48 C53.89,29.48 53.08,29.63 50.61,28.85 C48.14,28.07 48.12,27.28 48.12,27.28 C48.12,27.28 51.09,22.76 54.53,20.48 C57.98,18.2 62.09,15.94 61.87,12.4 C61.65,8.86 57.64,8 55.32,7.95 C53,7.9 51.11,8.06 50.03,7.12 C50.02,7.13 50.76,6.48 51.08,4.93 Z"/><path fill="url(#bv)" d="M50.27,1.81 C50.27,1.81 50.19,4.8 49.36,6.15 C48.52,7.5 47.09,8.66 47.09,8.66 C47.09,8.66 49.87,8.26 50.72,6.07 C51.57,3.89 50.27,1.81 50.27,1.81 Z"/><path fill="url(#bw)" d="M73.89,36.07 C72.3,37.17 71.91,39.36 73.02,40.94 C74.12,42.53 76.31,42.92 77.89,41.81 C79.48,40.71 79.87,38.52 78.76,36.94 C77.65,35.36 75.47,34.97 73.89,36.07 Z"/><path fill="#000" d="M74.39,39.05 C73.8,39.46 73.65,40.28 74.06,40.87 C74.47,41.46 75.29,41.61 75.88,41.2 C76.47,40.79 76.62,39.97 76.21,39.38 C75.8,38.79 74.99,38.64 74.39,39.05 Z"/><path fill="#FFF" d="M75.7,39.13 C75.29,39.42 75.19,39.98 75.47,40.39 C75.76,40.8 76.32,40.9 76.73,40.62 C77.14,40.33 77.24,39.77 76.96,39.36 C76.67,38.95 76.11,38.85 75.7,39.13 Z"/><path fill="url(#bx)" d="M75.75,35.38 C75.75,35.38 75.19,33.91 75.64,32.38 C76.09,30.85 76.32,26.1 73.16,24.48 C70,22.85 67.67,22.85 64.24,25.75 C60.81,28.66 61.01,29.28 59.52,30.14 C58.03,31 56,31.25 56,31.25 C56,31.25 55.81,31.9 56.27,33.97 C56.72,36.03 57.36,36.11 57.36,36.11 C57.36,36.11 61.26,34.04 63.37,31.41 C65.49,28.78 67.63,25.6 70.49,26.05 C73.35,26.5 73.75,29.82 73.62,31.71 C73.49,33.6 73.21,35.13 73.9,36.07 C73.89,36.07 74.46,35.53 75.75,35.38 Z"/><path fill="url(#by)" d="M78.23,36.27 C78.23,36.27 75.8,36.11 74.63,36.69 C73.47,37.27 72.42,38.35 72.42,38.35 C72.42,38.35 72.96,36.12 74.8,35.59 C76.63,35.06 78.23,36.27 78.23,36.27 Z"/><path fill="url(#bz)" d="M24.47,34.51 C24.71,34.44 39.41,29.71 42.84,28.18 C46.27,26.65 51.27,24.6 55.51,29.25 C59.76,33.89 55.33,38.78 55.33,38.78 C55.33,38.78 55.31,42.42 53.89,42.22 C52.46,42.01 51.28,40.7 51.28,40.7 L47.52,43.17 C47.52,43.17 48.8,45.54 47.88,46.37 C46.96,47.19 45.72,47.3 45.72,47.3 C45.72,47.3 46.18,54.63 46.84,59 C47.5,63.37 44.33,75.56 33.9,71.74 C33.25,71.5 32.6,71.24 31.95,70.95 C22.26,66.68 13.45,57.38 14.18,47.27 C14.73,39.65 20.54,35.67 24.47,34.51 Z"/><path fill="url(#bA)" d="M18.7,55.98 C18.7,55.98 15.99,59.08 14.99,58.65 C13.99,58.22 12.13,56.68 10.16,55.07 C8.19,53.46 6.04,51.21 4.63,50.89 C3.22,50.57 2.6,50.67 2.6,50.67 C2.6,50.67 3.5,51.62 4.19,52.78 C4.87,53.93 5.07,55.17 5.07,55.17 C5.07,55.17 4.57,54.79 2.75,55.26 C0.93,55.73 0.93,55.73 0.93,55.73 C0.93,55.73 4.19,57.12 5.05,58.1 C5.91,59.08 8.39,61 10.24,62.75 C12.09,64.5 14.5,67.07 15.89,65.77 C17.29,64.47 17.1,63.69 18.7,62.61 C20.3,61.53 21.93,60.97 21.93,60.97"/><path fill="url(#bB)" d="M25.7,34.01 C25.7,34.01 28.72,29.68 29.37,28.53 C30.02,27.38 29.78,17.34 29.78,17.34 L22.91,17.42 C22.91,17.42 23.35,18.61 22.93,19.71 C22.51,20.81 20.12,21.25 20.12,21.25 C20.12,21.25 20.12,21.25 20.48,20.6 C20.83,19.95 20.34,18.59 20.34,18.59 C20.34,18.59 19.29,19.6 18.6,20.66 C17.9,21.71 16.43,24.88 16.43,24.88 C16.43,24.88 16.43,24.88 16.07,23.44 C15.71,22 16.84,18.04 16.84,18.04 C16.84,18.04 15.83,19.08 15.35,19.81 C14.86,20.54 13.5,22.53 13.5,22.53 C13.5,22.53 12.7,21.23 13.04,19.56 C13.38,17.89 15.6,15.48 15.6,15.48 C15.6,15.48 15.06,15.9 14.08,16.09 C13.1,16.28 10.86,17.29 10.86,17.29 C10.86,17.29 11.11,16.62 11.77,15.91 C12.43,15.2 14,13.94 14,13.94 L11.78,13.46 C11.78,13.46 13.16,12.52 15.64,12.17 C18.12,11.82 21.02,14.26 21.02,14.26 C21.02,14.26 25.79,14.08 28.77,13.64 C31.74,13.2 33.07,13.82 33.91,16.62 C34.74,19.42 35.91,33.58 35.91,33.58 C35.91,33.58 35.25,38.02 30.64,38.31 C26.01,38.6 25.7,34.01 25.7,34.01 Z"/><g transform="translate(38 33)"><path fill="url(#bC)" d="M6.17,2.25 L5.04,3.59 L7.47,3.69 L6.51,5.51 L8.92,5.37 L8.17,7.48 L10.08,7.26 L9.33,8.69 L11.34,9.04 C11.81,8.72 12.24,8.43 12.58,8.22 C14.05,7.29 14.67,7.23 14.67,7.23 L12.71,1 C12.71,1 7.08,-0.19 4.4,1.09 C4.1,1.24 3.8,1.41 3.51,1.6 L6.17,2.25 Z"/><path fill="#FFF" d="M8.49,9.69 L8.88,8.42 L6.98,8.5 L7.64,6.54 L5.13,6.26 L5.89,4.46 L3.13,4.65 L4.16,2.62 L2.71,2.23 C0.85,3.84 -0.37,6.31 0.67,8.26 C2,10.75 7.72,11.57 7.72,11.57 C7.72,11.57 9.31,10.44 10.79,9.43 L8.49,9.69 Z"/></g><path fill="#FFF" d="M41.8,70.12 C41.8,70.12 45.69,66.57 45.74,61.1 C45.79,55.63 43.87,49.85 39.5,46.92 C35.13,44 21.82,42.66 21.72,52.25 C21.64,59.42 27.06,67.08 34.25,69.83 C36.68,70.77 39.02,71.39 41.8,70.12 Z" opacity=".3"/></g></g></svg>